<?xml version="1.0" encoding="UTF-8" standalone="no"?>
<!DOCTYPE svg PUBLIC "-//W3C//DTD SVG 1.1//EN"
 "http://www.w3.org/Graphics/SVG/1.1/DTD/svg11.dtd">
<!-- Generated by graphviz version 2.43.0 (0)
 -->
<!-- Title: PackAnatomy Pages: 1 -->
<svg width="779pt" height="372pt"
 viewBox="0.00 0.00 779.00 371.75" xmlns="http://www.w3.org/2000/svg" xmlns:xlink="http://www.w3.org/1999/xlink">
<g id="graph0" class="graph" transform="scale(1 1) rotate(0) translate(4 367.75)">
<title>PackAnatomy</title>
<text text-anchor="start" x="299.5" y="-351.95" font-family="Charter,Georgia,serif" font-weight="bold" font-size="11.00">Anatomy of a curriculum pack</text>
<text text-anchor="start" x="276.5" y="-342.55" font-family="Charter,Georgia,serif" font-size="9.00">curriculum/&lt;subject&gt;/ — real&#45;analysis pack shown</text>
<!-- root -->
<g id="node1" class="node">
<title>root</title>
<polygon fill="#fbf9f5" stroke="#2b4c7e" stroke-width="1.1" points="146,-178 143,-182 122,-182 119,-178 0,-178 0,-142 146,-142 146,-178"/>
<text text-anchor="middle" x="73" y="-157.6" font-family="Charter,Georgia,serif" font-size="10.50">curriculum/real&#45;analysis/</text>
</g>
<!-- curr -->
<g id="node2" class="node">
<title>curr</title>
<path fill="#e8edf5" stroke="#2b4c7e" stroke-width="1.1" d="M568.5,-335.5C568.5,-335.5 391.5,-335.5 391.5,-335.5 385.5,-335.5 379.5,-329.5 379.5,-323.5 379.5,-323.5 379.5,-302.5 379.5,-302.5 379.5,-296.5 385.5,-290.5 391.5,-290.5 391.5,-290.5 568.5,-290.5 568.5,-290.5 574.5,-290.5 580.5,-296.5 580.5,-302.5 580.5,-302.5 580.5,-323.5 580.5,-323.5 580.5,-329.5 574.5,-335.5 568.5,-335.5"/>
<text text-anchor="start" x="436" y="-321.35" font-family="Charter,Georgia,serif" font-weight="bold" font-size="10.50">curriculum.yaml</text>
<text text-anchor="start" x="415.5" y="-310.85" font-family="Charter,Georgia,serif" font-size="10.50">phases, sequencing_rules,</text>
<text text-anchor="start" x="389.5" y="-300.35" font-family="Charter,Georgia,serif" font-size="10.50">weekly_rhythm, quick_start_profiles</text>
</g>
<!-- root&#45;&gt;curr -->
<g id="edge1" class="edge">
<title>root&#45;&gt;curr</title>
<path fill="none" stroke="#6b7280" d="M85.13,-178.16C103.14,-205.73 141.49,-257.44 189,-281 245.13,-308.84 314.73,-317.24 371.67,-318.5"/>
<polygon fill="#6b7280" stroke="#6b7280" points="371.72,-321.12 379.26,-318.62 371.8,-315.87 371.72,-321.12"/>
</g>
<!-- misc -->
<g id="node3" class="node">
<title>misc</title>
<path fill="#e8edf5" stroke="#2b4c7e" stroke-width="1.1" d="M545,-271.5C545,-271.5 415,-271.5 415,-271.5 409,-271.5 403,-265.5 403,-259.5 403,-259.5 403,-238.5 403,-238.5 403,-232.5 409,-226.5 415,-226.5 415,-226.5 545,-226.5 545,-226.5 551,-226.5 557,-232.5 557,-238.5 557,-238.5 557,-259.5 557,-259.5 557,-265.5 551,-271.5 545,-271.5"/>
<text text-anchor="start" x="424" y="-257.35" font-family="Charter,Georgia,serif" font-weight="bold" font-size="10.50">misconceptions.yaml</text>
<text text-anchor="start" x="413" y="-246.85" font-family="Charter,Georgia,serif" font-size="10.50">one entry per documented</text>
<text text-anchor="start" x="446" y="-236.35" font-family="Charter,Georgia,serif" font-size="10.50">error pattern</text>
</g>
<!-- root&#45;&gt;misc -->
<g id="edge2" class="edge">
<title>root&#45;&gt;misc</title>
<path fill="none" stroke="#6b7280" d="M103.09,-178C125.67,-191.07 158.21,-207.98 189,-217 256.57,-236.8 336.27,-244.53 395,-247.46"/>
<polygon fill="#6b7280" stroke="#6b7280" points="395.16,-250.1 402.78,-247.83 395.41,-244.86 395.16,-250.1"/>
</g>
<!-- ladder -->
<g id="node4" class="node">
<title>ladder</title>
<path fill="#e8edf5" stroke="#2b4c7e" stroke-width="1.1" d="M550,-208C550,-208 410,-208 410,-208 404,-208 398,-202 398,-196 398,-196 398,-184 398,-184 398,-178 404,-172 410,-172 410,-172 550,-172 550,-172 556,-172 562,-178 562,-184 562,-184 562,-196 562,-196 562,-202 556,-208 550,-208"/>
<text text-anchor="start" x="448.5" y="-193.1" font-family="Charter,Georgia,serif" font-weight="bold" font-size="10.50">ladder.yaml</text>
<text text-anchor="start" x="408" y="-182.6" font-family="Charter,Georgia,serif" font-size="10.50">5&#45;rung proof&#45;practice ladder</text>
</g>
<!-- root&#45;&gt;ladder -->
<g id="edge3" class="edge">
<title>root&#45;&gt;ladder</title>
<path fill="none" stroke="#6b7280" d="M146.41,-165.36C214.57,-170.41 316.83,-177.99 389.96,-183.4"/>
<polygon fill="#6b7280" stroke="#6b7280" points="390.16,-186.05 397.83,-183.99 390.55,-180.82 390.16,-186.05"/>
</g>
<!-- schema -->
<g id="node5" class="node">
<title>schema</title>
<path fill="#e8edf5" stroke="#2b4c7e" stroke-width="1.1" d="M547.5,-153.5C547.5,-153.5 412.5,-153.5 412.5,-153.5 406.5,-153.5 400.5,-147.5 400.5,-141.5 400.5,-141.5 400.5,-120.5 400.5,-120.5 400.5,-114.5 406.5,-108.5 412.5,-108.5 412.5,-108.5 547.5,-108.5 547.5,-108.5 553.5,-108.5 559.5,-114.5 559.5,-120.5 559.5,-120.5 559.5,-141.5 559.5,-141.5 559.5,-147.5 553.5,-153.5 547.5,-153.5"/>
<text text-anchor="start" x="427" y="-139.35" font-family="Charter,Georgia,serif" font-weight="bold" font-size="10.50">ledger&#45;schema.yaml</text>
<text text-anchor="start" x="410.5" y="-128.85" font-family="Charter,Georgia,serif" font-size="10.50">mirrors engine.ledger fields</text>
<text text-anchor="start" x="432" y="-118.35" font-family="Charter,Georgia,serif" font-size="10.50">for human readers</text>
</g>
<!-- root&#45;&gt;schema -->
<g id="edge4" class="edge">
<title>root&#45;&gt;schema</title>
<path fill="none" stroke="#6b7280" d="M146.41,-154.82C215.34,-149.88 319.14,-142.45 392.42,-137.2"/>
<polygon fill="#6b7280" stroke="#6b7280" points="393.01,-139.79 400.3,-136.64 392.64,-134.55 393.01,-139.79"/>
</g>
<!-- checklists -->
<g id="node6" class="node">
<title>checklists</title>
<polygon fill="#fbf9f5" stroke="#2b4c7e" stroke-width="1.1" points="629.5,-90 626.5,-94 605.5,-94 602.5,-90 330.5,-90 330.5,-54 629.5,-54 629.5,-90"/>
<text text-anchor="start" x="340.5" y="-70.6" font-family="Charter,Georgia,serif" font-weight="bold" font-size="10.50">checklists/</text>
<text text-anchor="start" x="396.5" y="-70.6" font-family="Charter,Georgia,serif" font-size="10.50">\lphase1.yaml … phase7.yaml\l≥5 items each</text>
</g>
<!-- root&#45;&gt;checklists -->
<g id="edge5" class="edge">
<title>root&#45;&gt;checklists</title>
<path fill="none" stroke="#6b7280" d="M100.57,-141.99C123.07,-127.72 156.73,-108.64 189,-99 231.48,-86.31 278.88,-79.15 322.84,-75.21"/>
<polygon fill="#6b7280" stroke="#6b7280" points="323.19,-77.82 330.44,-74.56 322.74,-72.59 323.19,-77.82"/>
</g>
<!-- pedagogy -->
<g id="node7" class="node">
<title>pedagogy</title>
<polygon fill="#fbf9f5" stroke="#2b4c7e" stroke-width="1.1" points="771,-36 768,-40 747,-40 744,-36 189,-36 189,0 771,0 771,-36"/>
<text text-anchor="start" x="199" y="-16.6" font-family="Charter,Georgia,serif" font-weight="bold" font-size="10.50">pedagogy/</text>
<text text-anchor="start" x="253" y="-16.6" font-family="Charter,Georgia,serif" font-size="10.50">\ltexts.md · bloom.md · polya.md\lself&#45;explanation.md · prompts.md\l(free&#45;form, not schema&#45;checked)</text>
</g>
<!-- root&#45;&gt;pedagogy -->
<g id="edge6" class="edge">
<title>root&#45;&gt;pedagogy</title>
<path fill="none" stroke="#6b7280" d="M85.92,-141.77C104.41,-115.22 142.74,-66.73 189,-45 193.69,-42.8 198.47,-40.73 203.32,-38.78"/>
<polygon fill="#6b7280" stroke="#6b7280" points="204.43,-41.17 210.48,-36.03 202.54,-36.27 204.43,-41.17"/>
</g>
</g>
</svg>
