<?xml version="1.0" encoding="UTF-8" standalone="no"?>
<!DOCTYPE svg PUBLIC "-//W3C//DTD SVG 1.1//EN"
 "http://www.w3.org/Graphics/SVG/1.1/DTD/svg11.dtd">
<!-- Generated by graphviz version 2.43.0 (0)
 -->
<!-- Title: SixStageLoop Pages: 1 -->
<svg width="847pt" height="666pt"
 viewBox="0.00 0.00 847.35 665.50" xmlns="http://www.w3.org/2000/svg" xmlns:xlink="http://www.w3.org/1999/xlink">
<g id="graph0" class="graph" transform="scale(1 1) rotate(0) translate(4 661.5)">
<title>SixStageLoop</title>
<text text-anchor="start" x="266.18" y="-645.7" font-family="Charter,Georgia,serif" font-weight="bold" font-size="11.00">The six&#45;stage tutoring loop</text>
<text text-anchor="start" x="415.18" y="-645.7" font-family="Charter,Georgia,serif" font-size="11.00"> (per topic; never skip a stage)</text>
<!-- s1 -->
<g id="node1" class="node">
<title>s1</title>
<path fill="#e8edf5" stroke="#2b4c7e" stroke-width="1.2" d="M324.21,-170.54C324.21,-170.54 141.21,-170.54 141.21,-170.54 135.21,-170.54 129.21,-164.54 129.21,-158.54 129.21,-158.54 129.21,-135.54 129.21,-135.54 129.21,-129.54 135.21,-123.54 141.21,-123.54 141.21,-123.54 324.21,-123.54 324.21,-123.54 330.21,-123.54 336.21,-129.54 336.21,-135.54 336.21,-135.54 336.21,-158.54 336.21,-158.54 336.21,-164.54 330.21,-170.54 324.21,-170.54"/>
<text text-anchor="start" x="180.21" y="-155.74" font-family="Charter,Georgia,serif" font-weight="bold" font-size="11.00">1. Concept Priming</text>
<text text-anchor="start" x="141.21" y="-144.74" font-family="Charter,Georgia,serif" font-size="11.00">network position + informal image</text>
<text text-anchor="start" x="201.71" y="-133.74" font-family="Charter,Georgia,serif" font-size="11.00" fill="#2b4c7e">skill: prime</text>
</g>
<!-- s2 -->
<g id="node2" class="node">
<title>s2</title>
<path fill="#e8edf5" stroke="#2b4c7e" stroke-width="1.2" d="M187,-406.77C187,-406.77 12,-406.77 12,-406.77 6,-406.77 0,-400.77 0,-394.77 0,-394.77 0,-360.77 0,-360.77 0,-354.77 6,-348.77 12,-348.77 12,-348.77 187,-348.77 187,-348.77 193,-348.77 199,-354.77 199,-360.77 199,-360.77 199,-394.77 199,-394.77 199,-400.77 193,-406.77 187,-406.77"/>
<text text-anchor="start" x="48.5" y="-391.97" font-family="Charter,Georgia,serif" font-weight="bold" font-size="11.00">2. Active Reading /</text>
<text text-anchor="start" x="76.5" y="-380.97" font-family="Charter,Georgia,serif" font-weight="bold" font-size="11.00">Attempt</text>
<text text-anchor="start" x="12" y="-369.97" font-family="Charter,Georgia,serif" font-size="11.00">self&#45;explanation; stuck if impasse</text>
<text text-anchor="start" x="70.5" y="-358.97" font-family="Charter,Georgia,serif" font-size="11.00" fill="#2b4c7e">skill: stuck</text>
</g>
<!-- s1&#45;&gt;s2 -->
<g id="edge1" class="edge">
<title>s1&#45;&gt;s2</title>
<path fill="none" stroke="#6b7280" stroke-width="1.2" d="M218.96,-170.86C195.56,-211.38 147.89,-293.96 120.37,-341.63"/>
<polygon fill="#6b7280" stroke="#6b7280" stroke-width="1.2" points="117.87,-340.35 116.29,-348.68 122.72,-343.15 117.87,-340.35"/>
<text text-anchor="middle" x="147.66" y="-258.64" font-family="Charter,Georgia,serif" font-size="9.50">next topic</text>
</g>
<!-- s3 -->
<g id="node3" class="node">
<title>s3</title>
<path fill="#e8edf5" stroke="#2b4c7e" stroke-width="1.2" d="M297.21,-632C297.21,-632 168.21,-632 168.21,-632 162.21,-632 156.21,-626 156.21,-620 156.21,-620 156.21,-597 156.21,-597 156.21,-591 162.21,-585 168.21,-585 168.21,-585 297.21,-585 297.21,-585 303.21,-585 309.21,-591 309.21,-597 309.21,-597 309.21,-620 309.21,-620 309.21,-626 303.21,-632 297.21,-632"/>
<text text-anchor="start" x="184.21" y="-617.2" font-family="Charter,Georgia,serif" font-weight="bold" font-size="11.00">3. Proof Checking</text>
<text text-anchor="start" x="168.21" y="-606.2" font-family="Charter,Georgia,serif" font-size="11.00">line&#45;by&#45;line gap analysis</text>
<text text-anchor="start" x="187.21" y="-595.2" font-family="Charter,Georgia,serif" font-size="11.00" fill="#2b4c7e">skill: check&#45;proof</text>
</g>
<!-- s2&#45;&gt;s3 -->
<g id="edge2" class="edge">
<title>s2&#45;&gt;s3</title>
<path fill="none" stroke="#6b7280" stroke-width="1.2" d="M116.37,-406.99C141.64,-450.76 189.09,-532.95 214.9,-577.65"/>
<polygon fill="#6b7280" stroke="#6b7280" stroke-width="1.2" points="212.58,-579.22 219,-584.75 217.42,-576.42 212.58,-579.22"/>
<text text-anchor="middle" x="143.64" y="-494.72" font-family="Charter,Georgia,serif" font-size="9.50">next topic</text>
</g>
<!-- s4 -->
<g id="node4" class="node">
<title>s4</title>
<path fill="#e8edf5" stroke="#2b4c7e" stroke-width="1.2" d="M575.64,-637.5C575.64,-637.5 422.64,-637.5 422.64,-637.5 416.64,-637.5 410.64,-631.5 410.64,-625.5 410.64,-625.5 410.64,-591.5 410.64,-591.5 410.64,-585.5 416.64,-579.5 422.64,-579.5 422.64,-579.5 575.64,-579.5 575.64,-579.5 581.64,-579.5 587.64,-585.5 587.64,-591.5 587.64,-591.5 587.64,-625.5 587.64,-625.5 587.64,-631.5 581.64,-637.5 575.64,-637.5"/>
<text text-anchor="start" x="438.14" y="-622.7" font-family="Charter,Georgia,serif" font-weight="bold" font-size="11.00">4. Formal Verification</text>
<text text-anchor="start" x="422.64" y="-611.7" font-family="Charter,Georgia,serif" font-size="11.00">Lean 4 translation (amplifier,</text>
<text text-anchor="start" x="471.64" y="-600.7" font-family="Charter,Georgia,serif" font-size="11.00">not a gate)</text>
<text text-anchor="start" x="459.14" y="-589.7" font-family="Charter,Georgia,serif" font-size="11.00" fill="#2b4c7e">skill: formalize</text>
</g>
<!-- s3&#45;&gt;s4 -->
<g id="edge3" class="edge">
<title>s3&#45;&gt;s4</title>
<path fill="none" stroke="#6b7280" stroke-width="1.2" d="M309.42,-608.5C338.35,-608.5 371.64,-608.5 402.18,-608.5"/>
<polygon fill="#6b7280" stroke="#6b7280" stroke-width="1.2" points="402.3,-611.3 410.3,-608.5 402.3,-605.7 402.3,-611.3"/>
<text text-anchor="middle" x="333.8" y="-610.9" font-family="Charter,Georgia,serif" font-size="9.50">next topic</text>
</g>
<!-- s5 -->
<g id="node5" class="node">
<title>s5</title>
<path fill="#e8edf5" stroke="#2b4c7e" stroke-width="1.2" d="M692.85,-412.27C692.85,-412.27 571.85,-412.27 571.85,-412.27 565.85,-412.27 559.85,-406.27 559.85,-400.27 559.85,-400.27 559.85,-355.27 559.85,-355.27 559.85,-349.27 565.85,-343.27 571.85,-343.27 571.85,-343.27 692.85,-343.27 692.85,-343.27 698.85,-343.27 704.85,-349.27 704.85,-355.27 704.85,-355.27 704.85,-400.27 704.85,-400.27 704.85,-406.27 698.85,-412.27 692.85,-412.27"/>
<text text-anchor="start" x="573.85" y="-397.47" font-family="Charter,Georgia,serif" font-weight="bold" font-size="11.00">5. Counterexample &amp;</text>
<text text-anchor="start" x="606.35" y="-386.47" font-family="Charter,Georgia,serif" font-weight="bold" font-size="11.00">Converse</text>
<text text-anchor="start" x="571.85" y="-375.47" font-family="Charter,Georgia,serif" font-size="11.00">break each hypothesis;</text>
<text text-anchor="start" x="583.35" y="-364.47" font-family="Charter,Georgia,serif" font-size="11.00">settle the converse</text>
<text text-anchor="start" x="601.85" y="-353.47" font-family="Charter,Georgia,serif" font-size="11.00" fill="#2b4c7e">skill: attack</text>
</g>
<!-- s4&#45;&gt;s5 -->
<g id="edge4" class="edge">
<title>s4&#45;&gt;s5</title>
<path fill="none" stroke="#6b7280" stroke-width="1.2" d="M516.01,-579.28C539.34,-538.88 581.57,-465.73 608.22,-419.56"/>
<polygon fill="#6b7280" stroke="#6b7280" stroke-width="1.2" points="610.79,-420.72 612.36,-412.39 605.94,-417.92 610.79,-420.72"/>
<text text-anchor="middle" x="540.12" y="-501.82" font-family="Charter,Georgia,serif" font-size="9.50">next topic</text>
</g>
<!-- s6 -->
<g id="node6" class="node">
<title>s6</title>
<path fill="#e8edf5" stroke="#2b4c7e" stroke-width="1.2" d="M568.14,-181.54C568.14,-181.54 430.14,-181.54 430.14,-181.54 424.14,-181.54 418.14,-175.54 418.14,-169.54 418.14,-169.54 418.14,-124.54 418.14,-124.54 418.14,-118.54 424.14,-112.54 430.14,-112.54 430.14,-112.54 568.14,-112.54 568.14,-112.54 574.14,-112.54 580.14,-118.54 580.14,-124.54 580.14,-124.54 580.14,-169.54 580.14,-169.54 580.14,-175.54 574.14,-181.54 568.14,-181.54"/>
<text text-anchor="start" x="465.64" y="-166.74" font-family="Charter,Georgia,serif" font-weight="bold" font-size="11.00">6. Four&#45;Part</text>
<text text-anchor="start" x="459.64" y="-155.74" font-family="Charter,Georgia,serif" font-weight="bold" font-size="11.00">Consolidation</text>
<text text-anchor="start" x="430.14" y="-144.74" font-family="Charter,Georgia,serif" font-size="11.00">apply · analyze · evaluate ·</text>
<text text-anchor="start" x="444.64" y="-133.74" font-family="Charter,Georgia,serif" font-size="11.00">misconception check</text>
<text text-anchor="start" x="443.14" y="-122.74" font-family="Charter,Georgia,serif" font-size="11.00" fill="#2b4c7e">skill: assess → ledger</text>
</g>
<!-- s5&#45;&gt;s6 -->
<g id="edge5" class="edge">
<title>s5&#45;&gt;s6</title>
<path fill="none" stroke="#6b7280" stroke-width="1.2" d="M612.41,-343.23C588.62,-302.02 548.87,-233.18 523.34,-188.96"/>
<polygon fill="#6b7280" stroke="#6b7280" stroke-width="1.2" points="525.64,-187.34 519.22,-181.82 520.79,-190.14 525.64,-187.34"/>
<text text-anchor="middle" x="545.88" y="-268.49" font-family="Charter,Georgia,serif" font-size="9.50">next topic</text>
</g>
<!-- s6&#45;&gt;s1 -->
<g id="edge6" class="edge">
<title>s6&#45;&gt;s1</title>
<path fill="none" stroke="#6b7280" stroke-width="1.2" d="M418.12,-147.04C395.01,-147.04 369.41,-147.04 344.8,-147.04"/>
<polygon fill="#6b7280" stroke="#6b7280" stroke-width="1.2" points="344.5,-144.24 336.5,-147.04 344.5,-149.84 344.5,-144.24"/>
<text text-anchor="middle" x="359.46" y="-149.44" font-family="Charter,Georgia,serif" font-size="9.50">next topic</text>
</g>
<!-- gate -->
<g id="node7" class="node">
<title>gate</title>
<polygon fill="#fbf9f5" stroke="#6b7280" stroke-width="1.2" points="229.21,-36 81.21,-36 81.21,0 235.21,0 235.21,-30 229.21,-36"/>
<polyline fill="none" stroke="#6b7280" stroke-width="1.2" points="229.21,-36 229.21,-30 "/>
<polyline fill="none" stroke="#6b7280" stroke-width="1.2" points="235.21,-30 229.21,-30 "/>
<text text-anchor="middle" x="158.21" y="-20.4" font-family="Charter,Georgia,serif" font-size="9.50">Example / Non&#45;Example gate</text>
<text text-anchor="middle" x="158.21" y="-10.4" font-family="Charter,Georgia,serif" font-size="9.50">must clear before theorems</text>
</g>
<!-- gate&#45;&gt;s1 -->
<g id="edge7" class="edge">
<title>gate&#45;&gt;s1</title>
<path fill="none" stroke="#6b7280" stroke-width="1.2" stroke-dasharray="1,5" d="M168.73,-36.21C181.88,-59 204.44,-98.07 218.96,-123.22"/>
</g>
<!-- converse -->
<g id="node8" class="node">
<title>converse</title>
<polygon fill="#fbf9f5" stroke="#6b7280" stroke-width="1.2" points="833.35,-395.77 704.35,-395.77 704.35,-359.77 839.35,-359.77 839.35,-389.77 833.35,-395.77"/>
<polyline fill="none" stroke="#6b7280" stroke-width="1.2" points="833.35,-395.77 833.35,-389.77 "/>
<polyline fill="none" stroke="#6b7280" stroke-width="1.2" points="839.35,-389.77 833.35,-389.77 "/>
<text text-anchor="middle" x="771.85" y="-380.17" font-family="Charter,Georgia,serif" font-size="9.50">Converse reflex</text>
<text text-anchor="middle" x="771.85" y="-370.17" font-family="Charter,Georgia,serif" font-size="9.50">asked for every theorem</text>
</g>
<!-- converse&#45;&gt;s5 -->
<g id="edge8" class="edge">
<title>converse&#45;&gt;s5</title>
<path fill="none" stroke="#6b7280" stroke-width="1.2" stroke-dasharray="1,5" d="M704.14,-377.77C704.01,-377.77 703.87,-377.77 703.73,-377.77"/>
</g>
</g>
</svg>
