<?xml version="1.0" encoding="UTF-8" standalone="no"?>
<!DOCTYPE svg PUBLIC "-//W3C//DTD SVG 1.1//EN"
 "http://www.w3.org/Graphics/SVG/1.1/DTD/svg11.dtd">
<!-- Generated by graphviz version 2.43.0 (0)
 -->
<!-- Title: BloomLadder Pages: 1 -->
<svg width="805pt" height="111pt"
 viewBox="0.00 0.00 804.50 111.12" xmlns="http://www.w3.org/2000/svg" xmlns:xlink="http://www.w3.org/1999/xlink">
<g id="graph0" class="graph" transform="scale(1 1) rotate(0) translate(4 107.12)">
<title>BloomLadder</title>
<text text-anchor="start" x="280.75" y="-91.32" font-family="Charter,Georgia,serif" font-weight="bold" font-size="11.00">Proof&#45;practice ladder × Bloom&#39;s taxonomy</text>
<text text-anchor="start" x="318.25" y="-81.92" font-family="Charter,Georgia,serif" font-size="9.00">curriculum/real&#45;analysis/ladder.yaml</text>
<!-- r1 -->
<g id="node1" class="node">
<title>r1</title>
<path fill="#e8edf5" stroke="#2b4c7e" stroke-width="1.2" d="M79,-68.56C79,-68.56 12,-68.56 12,-68.56 6,-68.56 0,-62.56 0,-56.56 0,-56.56 0,-18.56 0,-18.56 0,-12.56 6,-6.56 12,-6.56 12,-6.56 79,-6.56 79,-6.56 85,-6.56 91,-12.56 91,-18.56 91,-18.56 91,-56.56 91,-56.56 91,-62.56 85,-68.56 79,-68.56"/>
<text text-anchor="start" x="26.5" y="-51.76" font-family="Charter,Georgia,serif" font-weight="bold" font-size="11.00">Rung 1</text>
<text text-anchor="start" x="15" y="-40.76" font-family="Charter,Georgia,serif" font-size="11.00">Mechanical</text>
<text text-anchor="start" x="12" y="-29.76" font-family="Charter,Georgia,serif" font-weight="bold" font-size="11.00" fill="#2b4c7e">Remember /</text>
<text text-anchor="start" x="12" y="-18.76" font-family="Charter,Georgia,serif" font-weight="bold" font-size="11.00" fill="#2b4c7e">Understand</text>
</g>
<!-- r2 -->
<g id="node2" class="node">
<title>r2</title>
<path fill="#e8edf5" stroke="#2b4c7e" stroke-width="1.2" d="M196,-63.06C196,-63.06 143,-63.06 143,-63.06 137,-63.06 131,-57.06 131,-51.06 131,-51.06 131,-24.06 131,-24.06 131,-18.06 137,-12.06 143,-12.06 143,-12.06 196,-12.06 196,-12.06 202,-12.06 208,-18.06 208,-24.06 208,-24.06 208,-51.06 208,-51.06 208,-57.06 202,-63.06 196,-63.06"/>
<text text-anchor="start" x="150.5" y="-46.26" font-family="Charter,Georgia,serif" font-weight="bold" font-size="11.00">Rung 2</text>
<text text-anchor="start" x="143" y="-35.26" font-family="Charter,Georgia,serif" font-size="11.00">Structural</text>
<text text-anchor="start" x="153.5" y="-24.26" font-family="Charter,Georgia,serif" font-weight="bold" font-size="11.00" fill="#2b4c7e">Apply</text>
</g>
<!-- r1&#45;&gt;r2 -->
<g id="edge1" class="edge">
<title>r1&#45;&gt;r2</title>
<path fill="none" stroke="#6b7280" d="M91.24,-37.56C101.54,-37.56 112.51,-37.56 122.85,-37.56"/>
<polygon fill="#6b7280" stroke="#6b7280" points="122.98,-40.36 130.98,-37.56 122.98,-34.76 122.98,-40.36"/>
</g>
<!-- gate1 -->
<g id="node6" class="node">
<title>gate1</title>
<path fill="#f3e3e3" stroke="#8c3b3b" stroke-width="1.2" d="M325.6,-48.05C325.6,-48.05 316.36,-64.69 316.36,-64.69 313.45,-69.93 304.53,-75.18 298.53,-75.18 298.53,-75.18 280.75,-75.18 280.75,-75.18 274.75,-75.18 265.84,-69.93 262.92,-64.69 262.92,-64.69 253.68,-48.05 253.68,-48.05 250.77,-42.8 250.77,-32.31 253.68,-27.07 253.68,-27.07 262.92,-10.43 262.92,-10.43 265.84,-5.19 274.75,0.06 280.75,0.06 280.75,0.06 298.53,0.06 298.53,0.06 304.53,0.06 313.45,-5.19 316.36,-10.43 316.36,-10.43 325.6,-27.07 325.6,-27.07 328.51,-32.31 328.51,-42.8 325.6,-48.05"/>
<text text-anchor="middle" x="289.64" y="-50.36" font-family="Charter,Georgia,serif" font-size="9.00">GATE</text>
<text text-anchor="middle" x="289.64" y="-40.36" font-family="Charter,Georgia,serif" font-size="9.00">Rungs 1&#45;2</text>
<text text-anchor="middle" x="289.64" y="-30.36" font-family="Charter,Georgia,serif" font-size="9.00">fluent</text>
<text text-anchor="middle" x="289.64" y="-20.36" font-family="Charter,Georgia,serif" font-size="9.00">before 3</text>
</g>
<!-- r2&#45;&gt;gate1 -->
<g id="edge2" class="edge">
<title>r2&#45;&gt;gate1</title>
<path fill="none" stroke="#6b7280" d="M208.21,-37.56C218.12,-37.56 228.95,-37.56 239.37,-37.56"/>
<polygon fill="#6b7280" stroke="#6b7280" points="239.62,-40.36 247.62,-37.56 239.62,-34.76 239.62,-40.36"/>
</g>
<!-- r3 -->
<g id="node3" class="node">
<title>r3</title>
<path fill="#e8edf5" stroke="#2b4c7e" stroke-width="1.2" d="M441.28,-63.06C441.28,-63.06 383.28,-63.06 383.28,-63.06 377.28,-63.06 371.28,-57.06 371.28,-51.06 371.28,-51.06 371.28,-24.06 371.28,-24.06 371.28,-18.06 377.28,-12.06 383.28,-12.06 383.28,-12.06 441.28,-12.06 441.28,-12.06 447.28,-12.06 453.28,-18.06 453.28,-24.06 453.28,-24.06 453.28,-51.06 453.28,-51.06 453.28,-57.06 447.28,-63.06 441.28,-63.06"/>
<text text-anchor="start" x="393.28" y="-46.26" font-family="Charter,Georgia,serif" font-weight="bold" font-size="11.00">Rung 3</text>
<text text-anchor="start" x="383.28" y="-35.26" font-family="Charter,Georgia,serif" font-size="11.00">Conceptual</text>
<text text-anchor="start" x="389.78" y="-24.26" font-family="Charter,Georgia,serif" font-weight="bold" font-size="11.00" fill="#2b4c7e">Analyze</text>
</g>
<!-- r4 -->
<g id="node4" class="node">
<title>r4</title>
<path fill="#e8edf5" stroke="#2b4c7e" stroke-width="1.2" d="M566.28,-63.06C566.28,-63.06 505.28,-63.06 505.28,-63.06 499.28,-63.06 493.28,-57.06 493.28,-51.06 493.28,-51.06 493.28,-24.06 493.28,-24.06 493.28,-18.06 499.28,-12.06 505.28,-12.06 505.28,-12.06 566.28,-12.06 566.28,-12.06 572.28,-12.06 578.28,-18.06 578.28,-24.06 578.28,-24.06 578.28,-51.06 578.28,-51.06 578.28,-57.06 572.28,-63.06 566.28,-63.06"/>
<text text-anchor="start" x="516.78" y="-46.26" font-family="Charter,Georgia,serif" font-weight="bold" font-size="11.00">Rung 4</text>
<text text-anchor="start" x="505.28" y="-35.26" font-family="Charter,Georgia,serif" font-size="11.00">Rudin&#45;Style</text>
<text text-anchor="start" x="510.78" y="-24.26" font-family="Charter,Georgia,serif" font-weight="bold" font-size="11.00" fill="#2b4c7e">Evaluate</text>
</g>
<!-- r3&#45;&gt;r4 -->
<g id="edge4" class="edge">
<title>r3&#45;&gt;r4</title>
<path fill="none" stroke="#6b7280" d="M453.4,-37.56C463.44,-37.56 474.33,-37.56 484.78,-37.56"/>
<polygon fill="#6b7280" stroke="#6b7280" points="485.04,-40.36 493.04,-37.56 485.04,-34.76 485.04,-40.36"/>
</g>
<!-- gate2 -->
<g id="node7" class="node">
<title>gate2</title>
<path fill="#f3e3e3" stroke="#8c3b3b" stroke-width="1.2" d="M683.63,-48.19C683.63,-48.19 675.98,-64.54 675.98,-64.54 673.49,-69.86 665.13,-75.18 659.26,-75.18 659.26,-75.18 647.52,-75.18 647.52,-75.18 641.65,-75.18 633.29,-69.86 630.81,-64.54 630.81,-64.54 623.15,-48.19 623.15,-48.19 620.66,-42.88 620.66,-32.24 623.15,-26.93 623.15,-26.93 630.81,-10.57 630.81,-10.57 633.29,-5.26 641.65,0.06 647.52,0.06 647.52,0.06 659.26,0.06 659.26,0.06 665.13,0.06 673.49,-5.26 675.98,-10.57 675.98,-10.57 683.63,-26.93 683.63,-26.93 686.12,-32.24 686.12,-42.88 683.63,-48.19"/>
<text text-anchor="middle" x="653.39" y="-50.36" font-family="Charter,Georgia,serif" font-size="9.00">GATE</text>
<text text-anchor="middle" x="653.39" y="-40.36" font-family="Charter,Georgia,serif" font-size="9.00">Rung 4</text>
<text text-anchor="middle" x="653.39" y="-30.36" font-family="Charter,Georgia,serif" font-size="9.00">reliable</text>
<text text-anchor="middle" x="653.39" y="-20.36" font-family="Charter,Georgia,serif" font-size="9.00">before 5</text>
</g>
<!-- r4&#45;&gt;gate2 -->
<g id="edge5" class="edge">
<title>r4&#45;&gt;gate2</title>
<path fill="none" stroke="#6b7280" d="M578.52,-37.56C588.73,-37.56 599.66,-37.56 609.9,-37.56"/>
<polygon fill="#6b7280" stroke="#6b7280" points="609.94,-40.36 617.94,-37.56 609.94,-34.76 609.94,-40.36"/>
</g>
<!-- r5 -->
<g id="node5" class="node">
<title>r5</title>
<path fill="#e8edf5" stroke="#2b4c7e" stroke-width="1.2" d="M784.5,-63.06C784.5,-63.06 740.5,-63.06 740.5,-63.06 734.5,-63.06 728.5,-57.06 728.5,-51.06 728.5,-51.06 728.5,-24.06 728.5,-24.06 728.5,-18.06 734.5,-12.06 740.5,-12.06 740.5,-12.06 784.5,-12.06 784.5,-12.06 790.5,-12.06 796.5,-18.06 796.5,-24.06 796.5,-24.06 796.5,-51.06 796.5,-51.06 796.5,-57.06 790.5,-63.06 784.5,-63.06"/>
<text text-anchor="start" x="743.5" y="-46.26" font-family="Charter,Georgia,serif" font-weight="bold" font-size="11.00">Rung 5</text>
<text text-anchor="start" x="740.5" y="-35.26" font-family="Charter,Georgia,serif" font-size="11.00">Creative</text>
<text text-anchor="start" x="744" y="-24.26" font-family="Charter,Georgia,serif" font-weight="bold" font-size="11.00" fill="#2b4c7e">Create</text>
</g>
<!-- gate1&#45;&gt;r3 -->
<g id="edge3" class="edge">
<title>gate1&#45;&gt;r3</title>
<path fill="none" stroke="#6b7280" d="M331.48,-37.56C341.52,-37.56 352.36,-37.56 362.71,-37.56"/>
<polygon fill="#6b7280" stroke="#6b7280" points="362.89,-40.36 370.89,-37.56 362.89,-34.76 362.89,-40.36"/>
</g>
<!-- gate2&#45;&gt;r5 -->
<g id="edge6" class="edge">
<title>gate2&#45;&gt;r5</title>
<path fill="none" stroke="#6b7280" d="M688.58,-37.56C698.62,-37.56 709.72,-37.56 720.17,-37.56"/>
<polygon fill="#6b7280" stroke="#6b7280" points="720.37,-40.36 728.37,-37.56 720.37,-34.76 720.37,-40.36"/>
</g>
</g>
</svg>
