<?xml version="1.0" encoding="UTF-8" standalone="no"?>
<!DOCTYPE svg PUBLIC "-//W3C//DTD SVG 1.1//EN"
 "http://www.w3.org/Graphics/SVG/1.1/DTD/svg11.dtd">
<!-- Generated by graphviz version 2.43.0 (0)
 -->
<!-- Title: LearnerJourney Pages: 1 -->
<svg width="673pt" height="795pt"
 viewBox="0.00 0.00 673.00 795.00" xmlns="http://www.w3.org/2000/svg" xmlns:xlink="http://www.w3.org/1999/xlink">
<g id="graph0" class="graph" transform="scale(1 1) rotate(0) translate(4 791)">
<title>LearnerJourney</title>
<text text-anchor="start" x="272" y="-775.2" font-family="Charter,Georgia,serif" font-weight="bold" font-size="11.00">The learner&#39;s journey</text>
<g id="clust1" class="cluster">
<title>cluster_daily</title>
<path fill="#fbf9f5" stroke="#2b4c7e" d="M20,-225C20,-225 214,-225 214,-225 220,-225 226,-231 226,-237 226,-237 226,-485 226,-485 226,-491 220,-497 214,-497 214,-497 20,-497 20,-497 14,-497 8,-491 8,-485 8,-485 8,-237 8,-237 8,-231 14,-225 20,-225"/>
<text text-anchor="start" x="78.5" y="-485.2" font-family="Charter,Georgia,serif" font-weight="bold" font-size="11.00">Daily sessions</text>
</g>
<g id="clust2" class="cluster">
<title>cluster_state</title>
<path fill="#e9f1ec" stroke="#2e6b4f" d="M208,-685C208,-685 645,-685 645,-685 651,-685 657,-691 657,-697 657,-697 657,-747 657,-747 657,-753 651,-759 645,-759 645,-759 208,-759 208,-759 202,-759 196,-753 196,-747 196,-747 196,-697 196,-697 196,-691 202,-685 208,-685"/>
<text text-anchor="start" x="316" y="-747.2" font-family="Charter,Georgia,serif" font-weight="bold" font-size="11.00">State accumulates</text>
<text text-anchor="start" x="419" y="-747.2" font-family="Charter,Georgia,serif" font-size="11.00"> (learner&#39;s workspace)</text>
</g>
<!-- install -->
<g id="node1" class="node">
<title>install</title>
<path fill="#fbf9f5" stroke="#6b7280" stroke-width="1.2" d="M174,-738C174,-738 60,-738 60,-738 54,-738 48,-732 48,-726 48,-726 48,-698 48,-698 48,-692 54,-686 60,-686 60,-686 174,-686 174,-686 180,-686 186,-692 186,-698 186,-698 186,-726 186,-726 186,-732 180,-738 174,-738"/>
<text text-anchor="start" x="98.5" y="-723.2" font-family="Charter,Georgia,serif" font-weight="bold" font-size="11.00">Install</text>
<text text-anchor="start" x="88.5" y="-713.8" font-family="Charter,Georgia,serif" font-size="9.00">2 commands:</text>
<text text-anchor="start" x="60" y="-704.8" font-family="Charter,Georgia,serif" font-size="9.00">/plugin marketplace add …</text>
<text text-anchor="start" x="82" y="-695.8" font-family="Charter,Georgia,serif" font-size="9.00">/plugin install …</text>
</g>
<!-- hello -->
<g id="node2" class="node">
<title>hello</title>
<path fill="#fbf9f5" stroke="#6b7280" stroke-width="1.2" d="M169,-649C169,-649 65,-649 65,-649 59,-649 53,-643 53,-637 53,-637 53,-625 53,-625 53,-619 59,-613 65,-613 65,-613 169,-613 169,-613 175,-613 181,-619 181,-625 181,-625 181,-637 181,-637 181,-643 175,-649 169,-649"/>
<text text-anchor="start" x="83.5" y="-633.2" font-family="Charter,Georgia,serif" font-weight="bold" font-size="11.00">Say \&quot;hello\&quot;</text>
<text text-anchor="start" x="65" y="-623.8" font-family="Charter,Georgia,serif" font-size="9.00">no config file to edit first</text>
</g>
<!-- install&#45;&gt;hello -->
<g id="edge3" class="edge">
<title>install&#45;&gt;hello</title>
<path fill="none" stroke="#6b7280" d="M117,-685.57C117,-676.55 117,-666.39 117,-657.37"/>
<polygon fill="#6b7280" stroke="#6b7280" points="119.8,-657.15 117,-649.15 114.2,-657.15 119.8,-657.15"/>
</g>
<!-- onboarding -->
<g id="node3" class="node">
<title>onboarding</title>
<path fill="#e8edf5" stroke="#2b4c7e" stroke-width="1.2" d="M195.5,-576C195.5,-576 38.5,-576 38.5,-576 32.5,-576 26.5,-570 26.5,-564 26.5,-564 26.5,-536 26.5,-536 26.5,-530 32.5,-524 38.5,-524 38.5,-524 195.5,-524 195.5,-524 201.5,-524 207.5,-530 207.5,-536 207.5,-536 207.5,-564 207.5,-564 207.5,-570 201.5,-576 195.5,-576"/>
<text text-anchor="start" x="54" y="-561.2" font-family="Charter,Georgia,serif" font-weight="bold" font-size="11.00">Onboarding interview</text>
<text text-anchor="start" x="43" y="-551.8" font-family="Charter,Georgia,serif" font-size="9.00">the one promise · profile question ·</text>
<text text-anchor="start" x="38.5" y="-542.8" font-family="Charter,Georgia,serif" font-size="9.00">workspace location · Lean detection ·</text>
<text text-anchor="start" x="78" y="-533.8" font-family="Charter,Georgia,serif" font-size="9.00">60&#45;sec orientation</text>
</g>
<!-- hello&#45;&gt;onboarding -->
<g id="edge4" class="edge">
<title>hello&#45;&gt;onboarding</title>
<path fill="none" stroke="#6b7280" d="M117,-612.86C117,-604.49 117,-594.13 117,-584.29"/>
<polygon fill="#6b7280" stroke="#6b7280" points="119.8,-584.21 117,-576.21 114.2,-584.21 119.8,-584.21"/>
</g>
<!-- openr -->
<g id="node4" class="node">
<title>openr</title>
<path fill="#e8edf5" stroke="#2b4c7e" stroke-width="1.2" d="M171.5,-469C171.5,-469 62.5,-469 62.5,-469 56.5,-469 50.5,-463 50.5,-457 50.5,-457 50.5,-419 50.5,-419 50.5,-413 56.5,-407 62.5,-407 62.5,-407 171.5,-407 171.5,-407 177.5,-407 183.5,-413 183.5,-419 183.5,-419 183.5,-457 183.5,-457 183.5,-463 177.5,-469 171.5,-469"/>
<text text-anchor="middle" x="117" y="-453.2" font-family="Charter,Georgia,serif" font-size="11.00">Open ritual</text>
<text text-anchor="middle" x="117" y="-441.2" font-family="Charter,Georgia,serif" font-size="11.00">position, not praise;</text>
<text text-anchor="middle" x="117" y="-429.2" font-family="Charter,Georgia,serif" font-size="11.00">surface due reviews;</text>
<text text-anchor="middle" x="117" y="-417.2" font-family="Charter,Georgia,serif" font-size="11.00">propose agenda</text>
</g>
<!-- onboarding&#45;&gt;openr -->
<g id="edge5" class="edge">
<title>onboarding&#45;&gt;openr</title>
<path fill="none" stroke="#6b7280" d="M117,-523.76C117,-510.06 117,-492.84 117,-477.5"/>
<polygon fill="#6b7280" stroke="#6b7280" points="119.8,-477.2 117,-469.2 114.2,-477.2 119.8,-477.2"/>
</g>
<!-- work -->
<g id="node5" class="node">
<title>work</title>
<path fill="#e8edf5" stroke="#2b4c7e" stroke-width="1.2" d="M189.5,-370C189.5,-370 44.5,-370 44.5,-370 38.5,-370 32.5,-364 32.5,-358 32.5,-358 32.5,-332 32.5,-332 32.5,-326 38.5,-320 44.5,-320 44.5,-320 189.5,-320 189.5,-320 195.5,-320 201.5,-326 201.5,-332 201.5,-332 201.5,-358 201.5,-358 201.5,-364 195.5,-370 189.5,-370"/>
<text text-anchor="middle" x="117" y="-354.2" font-family="Charter,Georgia,serif" font-size="11.00">Six&#45;stage loop</text>
<text text-anchor="middle" x="117" y="-342.2" font-family="Charter,Georgia,serif" font-size="11.00">prime → attempt → check →</text>
<text text-anchor="middle" x="117" y="-330.2" font-family="Charter,Georgia,serif" font-size="11.00">formalize → attack → assess</text>
</g>
<!-- openr&#45;&gt;work -->
<g id="edge1" class="edge">
<title>openr&#45;&gt;work</title>
<path fill="none" stroke="#6b7280" d="M117,-406.95C117,-397.83 117,-387.78 117,-378.51"/>
<polygon fill="#6b7280" stroke="#6b7280" points="119.8,-378.27 117,-370.27 114.2,-378.27 119.8,-378.27"/>
</g>
<!-- closer -->
<g id="node6" class="node">
<title>closer</title>
<path fill="#e8edf5" stroke="#2b4c7e" stroke-width="1.2" d="M206.5,-283C206.5,-283 27.5,-283 27.5,-283 21.5,-283 15.5,-277 15.5,-271 15.5,-271 15.5,-245 15.5,-245 15.5,-239 21.5,-233 27.5,-233 27.5,-233 206.5,-233 206.5,-233 212.5,-233 218.5,-239 218.5,-245 218.5,-245 218.5,-271 218.5,-271 218.5,-277 212.5,-283 206.5,-283"/>
<text text-anchor="middle" x="117" y="-267.2" font-family="Charter,Georgia,serif" font-size="11.00">Close ritual</text>
<text text-anchor="middle" x="117" y="-255.2" font-family="Charter,Georgia,serif" font-size="11.00">misconception probe · Look Back ·</text>
<text text-anchor="middle" x="117" y="-243.2" font-family="Charter,Georgia,serif" font-size="11.00">persist state · preview next</text>
</g>
<!-- work&#45;&gt;closer -->
<g id="edge2" class="edge">
<title>work&#45;&gt;closer</title>
<path fill="none" stroke="#6b7280" d="M117,-319.87C117,-310.99 117,-300.78 117,-291.29"/>
<polygon fill="#6b7280" stroke="#6b7280" points="119.8,-291.19 117,-283.19 114.2,-291.19 119.8,-291.19"/>
</g>
<!-- weekly -->
<g id="node7" class="node">
<title>weekly</title>
<path fill="#fbf9f5" stroke="#6b7280" stroke-width="1.2" d="M189.5,-187C189.5,-187 44.5,-187 44.5,-187 38.5,-187 32.5,-181 32.5,-175 32.5,-175 32.5,-129 32.5,-129 32.5,-123 38.5,-117 44.5,-117 44.5,-117 189.5,-117 189.5,-117 195.5,-117 201.5,-123 201.5,-129 201.5,-129 201.5,-175 201.5,-175 201.5,-181 195.5,-187 189.5,-187"/>
<text text-anchor="start" x="74.5" y="-172.2" font-family="Charter,Georgia,serif" font-weight="bold" font-size="11.00">Weekly rhythm</text>
<text text-anchor="start" x="44.5" y="-162.8" font-family="Charter,Georgia,serif" font-size="9.00">curriculum.yaml weekly_rhythm:</text>
<text text-anchor="start" x="46" y="-153.8" font-family="Charter,Georgia,serif" font-size="9.00">network positioning → Strichartz</text>
<text text-anchor="start" x="52" y="-144.8" font-family="Charter,Georgia,serif" font-size="9.00">reading → mastery checklist →</text>
<text text-anchor="start" x="48.5" y="-135.8" font-family="Charter,Georgia,serif" font-size="9.00">Rudin reading → proof ladder →</text>
<text text-anchor="start" x="71" y="-126.8" font-family="Charter,Georgia,serif" font-size="9.00">Four&#45;Part Assessment</text>
</g>
<!-- closer&#45;&gt;weekly -->
<g id="edge6" class="edge">
<title>closer&#45;&gt;weekly</title>
<path fill="none" stroke="#6b7280" d="M117,-232.88C117,-221.75 117,-208.21 117,-195.46"/>
<polygon fill="#6b7280" stroke="#6b7280" points="119.8,-195.23 117,-187.23 114.2,-195.23 119.8,-195.23"/>
<text text-anchor="middle" x="164.5" y="-207.4" font-family="Charter,Georgia,serif" font-size="9.50">days accumulate into</text>
</g>
<!-- lj -->
<g id="node9" class="node">
<title>lj</title>
<path fill="#e9f1ec" stroke="#2e6b4f" stroke-width="1.2" d="M637,-730C637,-730 575,-730 575,-730 569,-730 563,-724 563,-718 563,-718 563,-706 563,-706 563,-700 569,-694 575,-694 575,-694 637,-694 637,-694 643,-694 649,-700 649,-706 649,-706 649,-718 649,-718 649,-724 643,-730 637,-730"/>
<text text-anchor="middle" x="606" y="-709.2" font-family="Charter,Georgia,serif" font-size="11.00">learner.json</text>
</g>
<!-- closer&#45;&gt;lj -->
<g id="edge9" class="edge">
<title>closer&#45;&gt;lj</title>
<path fill="none" stroke="#2e6b4f" stroke-dasharray="5,2" d="M167.67,-283.22C183.16,-292.78 198.99,-305.09 210,-320 280.33,-415.29 212.21,-481.8 284,-576 362.44,-678.93 435.41,-633.19 554,-685 557.93,-686.72 561.99,-688.58 566.03,-690.5"/>
<polygon fill="#2e6b4f" stroke="#2e6b4f" points="564.81,-693.02 573.23,-693.97 567.25,-687.98 564.81,-693.02"/>
</g>
<!-- lg -->
<g id="node10" class="node">
<title>lg</title>
<path fill="#e9f1ec" stroke="#2e6b4f" stroke-width="1.2" d="M532.5,-731C532.5,-731 459.5,-731 459.5,-731 453.5,-731 447.5,-725 447.5,-719 447.5,-719 447.5,-705 447.5,-705 447.5,-699 453.5,-693 459.5,-693 459.5,-693 532.5,-693 532.5,-693 538.5,-693 544.5,-699 544.5,-705 544.5,-705 544.5,-719 544.5,-719 544.5,-725 538.5,-731 532.5,-731"/>
<text text-anchor="middle" x="496" y="-715.2" font-family="Charter,Georgia,serif" font-size="11.00">ledger.json</text>
<text text-anchor="middle" x="496" y="-703.2" font-family="Charter,Georgia,serif" font-size="11.00">error_log.json</text>
</g>
<!-- closer&#45;&gt;lg -->
<g id="edge10" class="edge">
<title>closer&#45;&gt;lg</title>
<path fill="none" stroke="#2e6b4f" stroke-dasharray="5,2" d="M210.1,-283.02C242.16,-293.4 272.25,-306.31 281,-320 347.46,-423.96 240.03,-500.2 319,-595 354.05,-637.08 408.3,-669.48 447.5,-689.21"/>
<polygon fill="#2e6b4f" stroke="#2e6b4f" points="446.71,-691.95 455.13,-692.99 449.2,-686.93 446.71,-691.95"/>
</g>
<!-- rv -->
<g id="node11" class="node">
<title>rv</title>
<path fill="#e9f1ec" stroke="#2e6b4f" stroke-width="1.2" d="M417.5,-730C417.5,-730 350.5,-730 350.5,-730 344.5,-730 338.5,-724 338.5,-718 338.5,-718 338.5,-706 338.5,-706 338.5,-700 344.5,-694 350.5,-694 350.5,-694 417.5,-694 417.5,-694 423.5,-694 429.5,-700 429.5,-706 429.5,-706 429.5,-718 429.5,-718 429.5,-724 423.5,-730 417.5,-730"/>
<text text-anchor="middle" x="384" y="-709.2" font-family="Charter,Georgia,serif" font-size="11.00">reviews.json</text>
</g>
<!-- closer&#45;&gt;rv -->
<g id="edge11" class="edge">
<title>closer&#45;&gt;rv</title>
<path fill="none" stroke="#2e6b4f" stroke-dasharray="5,2" d="M218.53,-282.18C258.25,-291.33 294.94,-299.95 297,-301 308.51,-306.86 313.54,-308.29 319,-320 370.68,-430.77 292.84,-476.54 323,-595 331.71,-629.22 352.28,-664.59 367.13,-687.13"/>
<polygon fill="#2e6b4f" stroke="#2e6b4f" points="364.94,-688.9 371.73,-693.98 369.59,-685.78 364.94,-688.9"/>
</g>
<!-- sn -->
<g id="node12" class="node">
<title>sn</title>
<path fill="#e9f1ec" stroke="#2e6b4f" stroke-width="1.2" d="M308,-730C308,-730 216,-730 216,-730 210,-730 204,-724 204,-718 204,-718 204,-706 204,-706 204,-700 210,-694 216,-694 216,-694 308,-694 308,-694 314,-694 320,-700 320,-706 320,-706 320,-718 320,-718 320,-724 314,-730 308,-730"/>
<text text-anchor="middle" x="262" y="-709.2" font-family="Charter,Georgia,serif" font-size="11.00">sessions/NNN.md</text>
</g>
<!-- closer&#45;&gt;sn -->
<g id="edge12" class="edge">
<title>closer&#45;&gt;sn</title>
<path fill="none" stroke="#2e6b4f" stroke-dasharray="5,2" d="M218.52,-282.14C220.02,-282.43 221.52,-282.72 223,-283 283.69,-294.57 334.13,-262.6 357,-320 410.05,-453.14 317.06,-624 278.03,-686.62"/>
<polygon fill="#2e6b4f" stroke="#2e6b4f" points="275.46,-685.45 273.55,-693.7 280.19,-688.44 275.46,-685.45"/>
</g>
<!-- monthly -->
<g id="node8" class="node">
<title>monthly</title>
<path fill="#fbf9f5" stroke="#6b7280" stroke-width="1.2" d="M184.5,-61C184.5,-61 49.5,-61 49.5,-61 43.5,-61 37.5,-55 37.5,-49 37.5,-49 37.5,-12 37.5,-12 37.5,-6 43.5,0 49.5,0 49.5,0 184.5,0 184.5,0 190.5,0 196.5,-6 196.5,-12 196.5,-12 196.5,-49 196.5,-49 196.5,-55 190.5,-61 184.5,-61"/>
<text text-anchor="start" x="73" y="-46.2" font-family="Charter,Georgia,serif" font-weight="bold" font-size="11.00">Monthly review</text>
<text text-anchor="start" x="49.5" y="-36.8" font-family="Charter,Georgia,serif" font-size="9.00">skills/review — full&#45;ledger quiz,</text>
<text text-anchor="start" x="68" y="-27.8" font-family="Charter,Georgia,serif" font-size="9.00">error&#45;pattern analysis,</text>
<text text-anchor="start" x="50.5" y="-18.8" font-family="Charter,Georgia,serif" font-size="9.00">dependency&#45;graph re&#45;mapping,</text>
<text text-anchor="start" x="64" y="-9.8" font-family="Charter,Georgia,serif" font-size="9.00">misconception re&#45;checks</text>
</g>
<!-- weekly&#45;&gt;monthly -->
<g id="edge7" class="edge">
<title>weekly&#45;&gt;monthly</title>
<path fill="none" stroke="#6b7280" d="M117,-116.76C117,-101.98 117,-84.63 117,-69.46"/>
<polygon fill="#6b7280" stroke="#6b7280" points="119.8,-69.28 117,-61.28 114.2,-69.28 119.8,-69.28"/>
<text text-anchor="middle" x="155" y="-91.4" font-family="Charter,Georgia,serif" font-size="9.50">~30 days /</text>
<text text-anchor="middle" x="155" y="-81.4" font-family="Charter,Georgia,serif" font-size="9.50">~8 ledger entries</text>
</g>
<!-- monthly&#45;&gt;openr -->
<g id="edge8" class="edge">
<title>monthly&#45;&gt;openr</title>
<path fill="none" stroke="#6b7280" d="M177.95,-61.2C185.01,-66.43 191.6,-72.36 197,-79 254.79,-150.13 235.83,-191.78 227,-283 223.2,-322.21 231.56,-337.03 210,-370 202.31,-381.76 195.45,-379.85 184,-388 177.66,-392.51 171.01,-397.3 164.47,-402.05"/>
<polygon fill="#6b7280" stroke="#6b7280" points="162.8,-399.8 157.98,-406.77 166.1,-404.33 162.8,-399.8"/>
<text text-anchor="middle" x="260.5" y="-255.4" font-family="Charter,Georgia,serif" font-size="9.50">next session</text>
</g>
</g>
</svg>
