<?xml version="1.0" encoding="UTF-8" standalone="no"?>
<!DOCTYPE svg PUBLIC "-//W3C//DTD SVG 1.1//EN"
 "http://www.w3.org/Graphics/SVG/1.1/DTD/svg11.dtd">
<!-- Generated by graphviz version 2.43.0 (0)
 -->
<!-- Title: SessionTurn Pages: 1 -->
<svg width="657pt" height="824pt"
 viewBox="0.00 0.00 657.00 824.00" xmlns="http://www.w3.org/2000/svg" xmlns:xlink="http://www.w3.org/1999/xlink">
<g id="graph0" class="graph" transform="scale(1 1) rotate(0) translate(4 820)">
<title>SessionTurn</title>
<text text-anchor="start" x="226" y="-804.2" font-family="Charter,Georgia,serif" font-weight="bold" font-size="11.00">A session turn through the harness</text>
<g id="clust1" class="cluster">
<title>cluster_guard</title>
<path fill="#fbf9f5" stroke="#2b4c7e" d="M63,-576C63,-576 480,-576 480,-576 486,-576 492,-582 492,-588 492,-588 492,-721 492,-721 492,-727 486,-733 480,-733 480,-733 63,-733 63,-733 57,-733 51,-727 51,-721 51,-721 51,-588 51,-588 51,-582 57,-576 63,-576"/>
<text text-anchor="middle" x="271.5" y="-720.2" font-family="Charter,Georgia,serif" font-size="11.00">UserPromptSubmit — prompt_guard.py</text>
</g>
<g id="clust2" class="cluster">
<title>cluster_agents</title>
<path fill="#fbf9f5" stroke="#2b4c7e" d="M20,-325C20,-325 594,-325 594,-325 600,-325 606,-331 606,-337 606,-337 606,-387 606,-387 606,-393 600,-399 594,-399 594,-399 20,-399 20,-399 14,-399 8,-393 8,-387 8,-387 8,-337 8,-337 8,-331 14,-325 20,-325"/>
<text text-anchor="middle" x="307" y="-386.2" font-family="Charter,Georgia,serif" font-size="11.00">Fresh&#45;context layer — one dispatched per need</text>
</g>
<g id="clust3" class="cluster">
<title>cluster_stop</title>
<path fill="#fbf9f5" stroke="#2b4c7e" d="M236,-8C236,-8 494,-8 494,-8 500,-8 506,-14 506,-20 506,-20 506,-211 506,-211 506,-217 500,-223 494,-223 494,-223 236,-223 236,-223 230,-223 224,-217 224,-211 224,-211 224,-20 224,-20 224,-14 230,-8 236,-8"/>
<text text-anchor="middle" x="365" y="-210.2" font-family="Charter,Georgia,serif" font-size="11.00">Stop — session_end.py</text>
</g>
<!-- user -->
<g id="node1" class="node">
<title>user</title>
<path fill="#fbf9f5" stroke="#6b7280" stroke-width="1.2" d="M402.5,-796C402.5,-796 327.5,-796 327.5,-796 321.5,-796 315.5,-790 315.5,-784 315.5,-784 315.5,-772 315.5,-772 315.5,-766 321.5,-760 327.5,-760 327.5,-760 402.5,-760 402.5,-760 408.5,-760 414.5,-766 414.5,-772 414.5,-772 414.5,-784 414.5,-784 414.5,-790 408.5,-796 402.5,-796"/>
<text text-anchor="middle" x="365" y="-775.2" font-family="Charter,Georgia,serif" font-size="11.00">User message</text>
</g>
<!-- guard -->
<g id="node2" class="node">
<title>guard</title>
<path fill="#e8edf5" stroke="#2b4c7e" stroke-width="1.2" d="M353.47,-701.67C353.47,-701.67 314.16,-690.33 314.16,-690.33 308.39,-688.66 308.39,-685.34 314.16,-683.67 314.16,-683.67 353.47,-672.33 353.47,-672.33 359.24,-670.66 370.76,-670.66 376.53,-672.33 376.53,-672.33 415.84,-683.67 415.84,-683.67 421.61,-685.34 421.61,-688.66 415.84,-690.33 415.84,-690.33 376.53,-701.67 376.53,-701.67 370.76,-703.34 359.24,-703.34 353.47,-701.67"/>
<text text-anchor="middle" x="365" y="-684.5" font-family="Charter,Georgia,serif" font-size="10.00">tier(prompt)</text>
</g>
<!-- user&#45;&gt;guard -->
<g id="edge3" class="edge">
<title>user&#45;&gt;guard</title>
<path fill="none" stroke="#6b7280" d="M365,-759.84C365,-746.67 365,-728.27 365,-713.39"/>
<polygon fill="#6b7280" stroke="#6b7280" points="367.8,-713.11 365,-705.11 362.2,-713.11 367.8,-713.11"/>
</g>
<!-- tier1 -->
<g id="node3" class="node">
<title>tier1</title>
<path fill="#e8edf5" stroke="#2b4c7e" stroke-width="1.2" d="M215.5,-622C215.5,-622 70.5,-622 70.5,-622 64.5,-622 58.5,-616 58.5,-610 58.5,-610 58.5,-596 58.5,-596 58.5,-590 64.5,-584 70.5,-584 70.5,-584 215.5,-584 215.5,-584 221.5,-584 227.5,-590 227.5,-596 227.5,-596 227.5,-610 227.5,-610 227.5,-616 221.5,-622 215.5,-622"/>
<text text-anchor="middle" x="143" y="-606.2" font-family="Charter,Georgia,serif" font-size="11.00">Tier 1</text>
<text text-anchor="middle" x="143" y="-594.2" font-family="Charter,Georgia,serif" font-size="11.00">standing Socratic reminder</text>
</g>
<!-- guard&#45;&gt;tier1 -->
<g id="edge1" class="edge">
<title>guard&#45;&gt;tier1</title>
<path fill="none" stroke="#6b7280" d="M339.1,-676.43C305.04,-663.85 244.27,-641.41 199.38,-624.82"/>
<polygon fill="#6b7280" stroke="#6b7280" points="200.23,-622.15 191.75,-622.01 198.29,-627.41 200.23,-622.15"/>
<text text-anchor="middle" x="284" y="-643" font-family="Charter,Georgia,serif" font-size="10.00">default</text>
</g>
<!-- tier2 -->
<g id="node4" class="node">
<title>tier2</title>
<path fill="#f3e3e3" stroke="#8c3b3b" stroke-width="1.2" d="M472.5,-622C472.5,-622 257.5,-622 257.5,-622 251.5,-622 245.5,-616 245.5,-610 245.5,-610 245.5,-596 245.5,-596 245.5,-590 251.5,-584 257.5,-584 257.5,-584 472.5,-584 472.5,-584 478.5,-584 484.5,-590 484.5,-596 484.5,-596 484.5,-610 484.5,-610 484.5,-616 478.5,-622 472.5,-622"/>
<text text-anchor="middle" x="365" y="-606.2" font-family="Charter,Georgia,serif" font-size="11.00">Tier 2</text>
<text text-anchor="middle" x="365" y="-594.2" font-family="Charter,Georgia,serif" font-size="11.00">fishing / authority — escalated reminder</text>
</g>
<!-- guard&#45;&gt;tier2 -->
<g id="edge2" class="edge">
<title>guard&#45;&gt;tier2</title>
<path fill="none" stroke="#6b7280" d="M365,-668.61C365,-657.53 365,-642.97 365,-630.47"/>
<polygon fill="#6b7280" stroke="#6b7280" points="367.8,-630.22 365,-622.22 362.2,-630.22 367.8,-630.22"/>
<text text-anchor="middle" x="400" y="-643" font-family="Charter,Georgia,serif" font-size="10.00">pattern match</text>
</g>
<!-- noop -->
<g id="node5" class="node">
<title>noop</title>
<path fill="#fbf9f5" stroke="#6b7280" stroke-width="1.2" d="M591.5,-622C591.5,-622 514.5,-622 514.5,-622 508.5,-622 502.5,-616 502.5,-610 502.5,-610 502.5,-596 502.5,-596 502.5,-590 508.5,-584 514.5,-584 514.5,-584 591.5,-584 591.5,-584 597.5,-584 603.5,-590 603.5,-596 603.5,-596 603.5,-610 603.5,-610 603.5,-616 597.5,-622 591.5,-622"/>
<text text-anchor="middle" x="553" y="-606.2" font-family="Charter,Georgia,serif" font-size="11.00" fill="#6b7280">No workspace</text>
<text text-anchor="middle" x="553" y="-594.2" font-family="Charter,Georgia,serif" font-size="11.00" fill="#6b7280">(no&#45;op)</text>
</g>
<!-- guard&#45;&gt;noop -->
<g id="edge4" class="edge">
<title>guard&#45;&gt;noop</title>
<path fill="none" stroke="#6b7280" stroke-dasharray="5,2" d="M388.81,-675.61C417.59,-663.06 466.77,-641.61 503.81,-625.45"/>
<polygon fill="#6b7280" stroke="#6b7280" points="505.31,-627.86 511.52,-622.09 503.07,-622.72 505.31,-627.86"/>
<text text-anchor="middle" x="503.5" y="-643" font-family="Charter,Georgia,serif" font-size="10.00">no workspace</text>
</g>
<!-- plan -->
<g id="node6" class="node">
<title>plan</title>
<path fill="#e8edf5" stroke="#2b4c7e" stroke-width="1.2" d="M511.5,-547C511.5,-547 218.5,-547 218.5,-547 212.5,-547 206.5,-541 206.5,-535 206.5,-535 206.5,-521 206.5,-521 206.5,-515 212.5,-509 218.5,-509 218.5,-509 511.5,-509 511.5,-509 517.5,-509 523.5,-515 523.5,-521 523.5,-521 523.5,-535 523.5,-535 523.5,-541 517.5,-547 511.5,-547"/>
<text text-anchor="middle" x="365" y="-531.2" font-family="Charter,Georgia,serif" font-size="11.00">Tutor: hidden pre&#45;response plan</text>
<text text-anchor="middle" x="365" y="-519.2" font-family="Charter,Georgia,serif" font-size="11.00">diagnosis → Bloom/rung → withhold&#45;list → one question</text>
</g>
<!-- tier1&#45;&gt;plan -->
<g id="edge5" class="edge">
<title>tier1&#45;&gt;plan</title>
<path fill="none" stroke="#6b7280" d="M197.88,-583.96C229.5,-573.56 269.36,-560.45 302.22,-549.64"/>
<polygon fill="#6b7280" stroke="#6b7280" points="303.26,-552.25 309.99,-547.09 301.51,-546.93 303.26,-552.25"/>
</g>
<!-- tier2&#45;&gt;plan -->
<g id="edge6" class="edge">
<title>tier2&#45;&gt;plan</title>
<path fill="none" stroke="#6b7280" d="M365,-583.96C365,-575.27 365,-564.69 365,-555.14"/>
<polygon fill="#6b7280" stroke="#6b7280" points="367.8,-555.09 365,-547.09 362.2,-555.09 367.8,-555.09"/>
</g>
<!-- noop&#45;&gt;plan -->
<g id="edge7" class="edge">
<title>noop&#45;&gt;plan</title>
<path fill="none" stroke="#6b7280" d="M514.56,-583.94C508.39,-581.19 502.05,-578.46 496,-576 473.48,-566.84 448.42,-557.62 426.3,-549.8"/>
<polygon fill="#6b7280" stroke="#6b7280" points="427.08,-547.11 418.6,-547.1 425.22,-552.39 427.08,-547.11"/>
</g>
<!-- dispatch -->
<g id="node7" class="node">
<title>dispatch</title>
<path fill="#e8edf5" stroke="#2b4c7e" stroke-width="1.2" d="M353.17,-469.99C353.17,-469.99 270.73,-456.01 270.73,-456.01 264.81,-455 264.81,-453 270.73,-451.99 270.73,-451.99 353.17,-438.01 353.17,-438.01 359.08,-437 370.92,-437 376.83,-438.01 376.83,-438.01 459.27,-451.99 459.27,-451.99 465.19,-453 465.19,-455 459.27,-456.01 459.27,-456.01 376.83,-469.99 376.83,-469.99 370.92,-471 359.08,-471 353.17,-469.99"/>
<text text-anchor="middle" x="365" y="-451.2" font-family="Charter,Georgia,serif" font-size="11.00">Dispatch a subagent?</text>
</g>
<!-- plan&#45;&gt;dispatch -->
<g id="edge8" class="edge">
<title>plan&#45;&gt;dispatch</title>
<path fill="none" stroke="#6b7280" d="M365,-508.83C365,-500.28 365,-489.94 365,-480.62"/>
<polygon fill="#6b7280" stroke="#6b7280" points="367.8,-480.42 365,-472.42 362.2,-480.42 367.8,-480.42"/>
</g>
<!-- pc -->
<g id="node8" class="node">
<title>pc</title>
<path fill="#e8edf5" stroke="#2b4c7e" stroke-width="1.2" d="M89.5,-370C89.5,-370 28.5,-370 28.5,-370 22.5,-370 16.5,-364 16.5,-358 16.5,-358 16.5,-346 16.5,-346 16.5,-340 22.5,-334 28.5,-334 28.5,-334 89.5,-334 89.5,-334 95.5,-334 101.5,-340 101.5,-346 101.5,-346 101.5,-358 101.5,-358 101.5,-364 95.5,-370 89.5,-370"/>
<text text-anchor="middle" x="59" y="-349.2" font-family="Charter,Georgia,serif" font-size="11.00">proof&#45;critic</text>
</g>
<!-- dispatch&#45;&gt;pc -->
<g id="edge9" class="edge">
<title>dispatch&#45;&gt;pc</title>
<path fill="none" stroke="#6b7280" d="M284.27,-449.65C239.55,-445.58 183.71,-436.81 137,-418 114.54,-408.96 93.72,-390.9 79.25,-376.11"/>
<polygon fill="#6b7280" stroke="#6b7280" points="80.99,-373.88 73.45,-370.01 76.94,-377.74 80.99,-373.88"/>
<text text-anchor="middle" x="175.5" y="-410" font-family="Charter,Georgia,serif" font-size="10.00">proof submitted</text>
</g>
<!-- ch -->
<g id="node9" class="node">
<title>ch</title>
<path fill="#e8edf5" stroke="#2b4c7e" stroke-width="1.2" d="M222.5,-371C222.5,-371 131.5,-371 131.5,-371 125.5,-371 119.5,-365 119.5,-359 119.5,-359 119.5,-345 119.5,-345 119.5,-339 125.5,-333 131.5,-333 131.5,-333 222.5,-333 222.5,-333 228.5,-333 234.5,-339 234.5,-345 234.5,-345 234.5,-359 234.5,-359 234.5,-365 228.5,-371 222.5,-371"/>
<text text-anchor="middle" x="177" y="-355.2" font-family="Charter,Georgia,serif" font-size="11.00">counterexample&#45;</text>
<text text-anchor="middle" x="177" y="-343.2" font-family="Charter,Georgia,serif" font-size="11.00">hunter</text>
</g>
<!-- dispatch&#45;&gt;ch -->
<g id="edge10" class="edge">
<title>dispatch&#45;&gt;ch</title>
<path fill="none" stroke="#6b7280" d="M306.4,-445.82C281.7,-440.81 253.52,-432.32 231,-418 215.19,-407.94 201.71,-391.74 192.18,-378.03"/>
<polygon fill="#6b7280" stroke="#6b7280" points="194.33,-376.22 187.56,-371.13 189.68,-379.33 194.33,-376.22"/>
<text text-anchor="middle" x="269.5" y="-410" font-family="Charter,Georgia,serif" font-size="10.00">proof submitted</text>
</g>
<!-- mp -->
<g id="node10" class="node">
<title>mp</title>
<path fill="#e8edf5" stroke="#2b4c7e" stroke-width="1.2" d="M347,-371C347,-371 265,-371 265,-371 259,-371 253,-365 253,-359 253,-359 253,-345 253,-345 253,-339 259,-333 265,-333 265,-333 347,-333 347,-333 353,-333 359,-339 359,-345 359,-345 359,-359 359,-359 359,-365 353,-371 347,-371"/>
<text text-anchor="middle" x="306" y="-355.2" font-family="Charter,Georgia,serif" font-size="11.00">misconception&#45;</text>
<text text-anchor="middle" x="306" y="-343.2" font-family="Charter,Georgia,serif" font-size="11.00">prober</text>
</g>
<!-- dispatch&#45;&gt;mp -->
<g id="edge11" class="edge">
<title>dispatch&#45;&gt;mp</title>
<path fill="none" stroke="#6b7280" d="M340.05,-440.12C331.45,-434.46 322.59,-427.03 317,-418 309.9,-406.53 307.01,-391.86 305.95,-379.35"/>
<polygon fill="#6b7280" stroke="#6b7280" points="308.73,-378.93 305.48,-371.1 303.14,-379.25 308.73,-378.93"/>
<text text-anchor="middle" x="355.5" y="-410" font-family="Charter,Georgia,serif" font-size="10.00">proof submitted</text>
</g>
<!-- lv -->
<g id="node11" class="node">
<title>lv</title>
<path fill="#e8edf5" stroke="#2b4c7e" stroke-width="1.2" d="M458.5,-370C458.5,-370 389.5,-370 389.5,-370 383.5,-370 377.5,-364 377.5,-358 377.5,-358 377.5,-346 377.5,-346 377.5,-340 383.5,-334 389.5,-334 389.5,-334 458.5,-334 458.5,-334 464.5,-334 470.5,-340 470.5,-346 470.5,-346 470.5,-358 470.5,-358 470.5,-364 464.5,-370 458.5,-370"/>
<text text-anchor="middle" x="424" y="-349.2" font-family="Charter,Georgia,serif" font-size="11.00">lean&#45;verifier</text>
</g>
<!-- dispatch&#45;&gt;lv -->
<g id="edge12" class="edge">
<title>dispatch&#45;&gt;lv</title>
<path fill="none" stroke="#6b7280" d="M378.9,-437.98C384.02,-432.02 389.63,-424.94 394,-418 401.93,-405.41 409.01,-390.37 414.3,-377.93"/>
<polygon fill="#6b7280" stroke="#6b7280" points="417.03,-378.65 417.5,-370.19 411.85,-376.51 417.03,-378.65"/>
<text text-anchor="middle" x="437.5" y="-410" font-family="Charter,Georgia,serif" font-size="10.00">proof submitted</text>
</g>
<!-- la -->
<g id="node12" class="node">
<title>la</title>
<path fill="#f3e3e3" stroke="#8c3b3b" stroke-width="1.2" d="M585.5,-370C585.5,-370 500.5,-370 500.5,-370 494.5,-370 488.5,-364 488.5,-358 488.5,-358 488.5,-346 488.5,-346 488.5,-340 494.5,-334 500.5,-334 500.5,-334 585.5,-334 585.5,-334 591.5,-334 597.5,-340 597.5,-346 597.5,-346 597.5,-358 597.5,-358 597.5,-364 591.5,-370 585.5,-370"/>
<text text-anchor="middle" x="543" y="-349.2" font-family="Charter,Georgia,serif" font-size="11.00">leakage&#45;auditor</text>
</g>
<!-- dispatch&#45;&gt;la -->
<g id="edge13" class="edge">
<title>dispatch&#45;&gt;la</title>
<path fill="none" stroke="#6b7280" d="M413.15,-444.09C434.67,-438.7 459.7,-430.4 480,-418 497.64,-407.23 513.77,-390.38 525.3,-376.53"/>
<polygon fill="#6b7280" stroke="#6b7280" points="527.72,-377.99 530.58,-370.01 523.37,-374.47 527.72,-377.99"/>
<text text-anchor="middle" x="539" y="-410" font-family="Charter,Georgia,serif" font-size="10.00">tier&#45;2 reply drafted</text>
</g>
<!-- reply -->
<g id="node13" class="node">
<title>reply</title>
<path fill="#e9f1ec" stroke="#2e6b4f" stroke-width="1.2" d="M403.5,-286C403.5,-286 316.5,-286 316.5,-286 310.5,-286 304.5,-280 304.5,-274 304.5,-274 304.5,-262 304.5,-262 304.5,-256 310.5,-250 316.5,-250 316.5,-250 403.5,-250 403.5,-250 409.5,-250 415.5,-256 415.5,-262 415.5,-262 415.5,-274 415.5,-274 415.5,-280 409.5,-286 403.5,-286"/>
<text text-anchor="middle" x="360" y="-265.2" font-family="Charter,Georgia,serif" font-size="11.00">Reply to learner</text>
</g>
<!-- dispatch&#45;&gt;reply -->
<g id="edge14" class="edge">
<title>dispatch&#45;&gt;reply</title>
<path fill="none" stroke="#6b7280" d="M451.08,-450.58C493.88,-446.67 545.42,-437.73 588,-418 626.54,-400.14 636.55,-358.15 610,-325 587.1,-296.41 490.19,-281.43 423.97,-274.38"/>
<polygon fill="#6b7280" stroke="#6b7280" points="423.9,-271.56 415.65,-273.52 423.32,-277.13 423.9,-271.56"/>
<text text-anchor="middle" x="630.5" y="-349.5" font-family="Charter,Georgia,serif" font-size="10.00">no</text>
</g>
<!-- pc&#45;&gt;reply -->
<g id="edge15" class="edge">
<title>pc&#45;&gt;reply</title>
<path fill="none" stroke="#6b7280" d="M89.46,-333.91C96.09,-330.63 103.17,-327.46 110,-325 171.56,-302.81 244.94,-287.63 296.22,-278.73"/>
<polygon fill="#6b7280" stroke="#6b7280" points="296.84,-281.47 304.25,-277.36 295.89,-275.95 296.84,-281.47"/>
</g>
<!-- ch&#45;&gt;reply -->
<g id="edge16" class="edge">
<title>ch&#45;&gt;reply</title>
<path fill="none" stroke="#6b7280" d="M217.61,-332.8C246.35,-319.93 284.9,-302.65 314.64,-289.33"/>
<polygon fill="#6b7280" stroke="#6b7280" points="315.84,-291.85 322,-286.03 313.55,-286.74 315.84,-291.85"/>
</g>
<!-- mp&#45;&gt;reply -->
<g id="edge17" class="edge">
<title>mp&#45;&gt;reply</title>
<path fill="none" stroke="#6b7280" d="M317.98,-332.8C325.74,-321.02 335.93,-305.55 344.33,-292.79"/>
<polygon fill="#6b7280" stroke="#6b7280" points="346.73,-294.25 348.79,-286.03 342.05,-291.17 346.73,-294.25"/>
</g>
<!-- lv&#45;&gt;reply -->
<g id="edge18" class="edge">
<title>lv&#45;&gt;reply</title>
<path fill="none" stroke="#6b7280" d="M410.43,-333.61C401.12,-321.68 388.65,-305.7 378.44,-292.62"/>
<polygon fill="#6b7280" stroke="#6b7280" points="380.46,-290.67 373.33,-286.08 376.05,-294.11 380.46,-290.67"/>
</g>
<!-- la&#45;&gt;plan -->
<g id="edge20" class="edge">
<title>la&#45;&gt;plan</title>
<path fill="none" stroke="#8c3b3b" d="M567.59,-370.05C583.07,-382.98 598.32,-401.3 588,-418 559.78,-463.66 506.22,-490.69 458.67,-506.42"/>
<polygon fill="#8c3b3b" stroke="#8c3b3b" points="457.56,-503.83 450.79,-508.94 459.26,-509.17 457.56,-503.83"/>
<text text-anchor="middle" x="611" y="-451.5" font-family="Charter,Georgia,serif" font-size="10.00" fill="#8c3b3b">REVISE / BLOCK</text>
</g>
<!-- la&#45;&gt;reply -->
<g id="edge19" class="edge">
<title>la&#45;&gt;reply</title>
<path fill="none" stroke="#6b7280" d="M504.64,-333.81C475.75,-320.87 436.04,-303.07 405.54,-289.41"/>
<polygon fill="#6b7280" stroke="#6b7280" points="406.44,-286.74 398,-286.03 404.15,-291.85 406.44,-286.74"/>
<text text-anchor="middle" x="474" y="-307" font-family="Charter,Georgia,serif" font-size="10.00">SHIP</text>
</g>
<!-- stopcheck -->
<g id="node14" class="node">
<title>stopcheck</title>
<path fill="#e8edf5" stroke="#2b4c7e" stroke-width="1.2" d="M348.82,-190.64C348.82,-190.64 266.18,-158.36 266.18,-158.36 260.59,-156.18 260.59,-151.82 266.18,-149.64 266.18,-149.64 348.82,-117.36 348.82,-117.36 354.41,-115.18 365.59,-115.18 371.18,-117.36 371.18,-117.36 453.82,-149.64 453.82,-149.64 459.41,-151.82 459.41,-156.18 453.82,-158.36 453.82,-158.36 371.18,-190.64 371.18,-190.64 365.59,-192.82 354.41,-192.82 348.82,-190.64"/>
<text text-anchor="middle" x="360" y="-162.5" font-family="Charter,Georgia,serif" font-size="10.00">should_remind()</text>
<text text-anchor="middle" x="360" y="-151.5" font-family="Charter,Georgia,serif" font-size="10.00">stale learner.json,</text>
<text text-anchor="middle" x="360" y="-140.5" font-family="Charter,Georgia,serif" font-size="10.00">not yet this session</text>
</g>
<!-- reply&#45;&gt;stopcheck -->
<g id="edge21" class="edge">
<title>reply&#45;&gt;stopcheck</title>
<path fill="none" stroke="#6b7280" d="M360,-249.99C360,-237.58 360,-220.1 360,-203.51"/>
<polygon fill="#6b7280" stroke="#6b7280" points="362.8,-203.46 360,-195.46 357.2,-203.46 362.8,-203.46"/>
</g>
<!-- block -->
<g id="node15" class="node">
<title>block</title>
<path fill="#f3e3e3" stroke="#8c3b3b" stroke-width="1.2" d="M388,-66C388,-66 244,-66 244,-66 238,-66 232,-60 232,-54 232,-54 232,-28 232,-28 232,-22 238,-16 244,-16 244,-16 388,-16 388,-16 394,-16 400,-22 400,-28 400,-28 400,-54 400,-54 400,-60 394,-66 388,-66"/>
<text text-anchor="middle" x="316" y="-50.2" font-family="Charter,Georgia,serif" font-size="11.00">Block:</text>
<text text-anchor="middle" x="316" y="-38.2" font-family="Charter,Georgia,serif" font-size="11.00">&quot;persist state&quot;</text>
<text text-anchor="middle" x="316" y="-26.2" font-family="Charter,Georgia,serif" font-size="11.00">(once per session, sentinel)</text>
</g>
<!-- stopcheck&#45;&gt;block -->
<g id="edge22" class="edge">
<title>stopcheck&#45;&gt;block</title>
<path fill="none" stroke="#6b7280" d="M346.2,-118.18C340.54,-103.91 334.04,-87.52 328.52,-73.6"/>
<polygon fill="#6b7280" stroke="#6b7280" points="331.12,-72.55 325.57,-66.15 325.92,-74.62 331.12,-72.55"/>
<text text-anchor="middle" x="344" y="-87" font-family="Charter,Georgia,serif" font-size="10.00">yes</text>
</g>
<!-- turnend -->
<g id="node16" class="node">
<title>turnend</title>
<path fill="#fbf9f5" stroke="#6b7280" stroke-width="1.2" d="M486,-59C486,-59 430,-59 430,-59 424,-59 418,-53 418,-47 418,-47 418,-35 418,-35 418,-29 424,-23 430,-23 430,-23 486,-23 486,-23 492,-23 498,-29 498,-35 498,-35 498,-47 498,-47 498,-53 492,-59 486,-59"/>
<text text-anchor="middle" x="458" y="-38.2" font-family="Charter,Georgia,serif" font-size="11.00" fill="#6b7280">Turn ends</text>
</g>
<!-- stopcheck&#45;&gt;turnend -->
<g id="edge23" class="edge">
<title>stopcheck&#45;&gt;turnend</title>
<path fill="none" stroke="#6b7280" d="M386.26,-123.25C402.28,-105.11 422.46,-82.25 437.34,-65.41"/>
<polygon fill="#6b7280" stroke="#6b7280" points="439.76,-66.89 442.96,-59.04 435.56,-63.18 439.76,-66.89"/>
<text text-anchor="middle" x="426.5" y="-87" font-family="Charter,Georgia,serif" font-size="10.00">no</text>
</g>
</g>
</svg>
