<?xml version="1.0" encoding="UTF-8" standalone="no"?>
<!DOCTYPE svg PUBLIC "-//W3C//DTD SVG 1.1//EN"
 "http://www.w3.org/Graphics/SVG/1.1/DTD/svg11.dtd">
<!-- Generated by graphviz version 2.43.0 (0)
 -->
<!-- Title: EngineVsPack Pages: 1 -->
<svg width="935pt" height="636pt"
 viewBox="0.00 0.00 935.00 635.50" xmlns="http://www.w3.org/2000/svg" xmlns:xlink="http://www.w3.org/1999/xlink">
<g id="graph0" class="graph" transform="scale(1 1) rotate(0) translate(4 631.5)">
<title>EngineVsPack</title>
<text text-anchor="start" x="306.5" y="-615.7" font-family="Charter,Georgia,serif" font-weight="bold" font-size="11.00">Engine vs. curriculum pack — where the split actually is</text>
<g id="clust1" class="cluster">
<title>cluster_engine</title>
<path fill="#fbf9f5" stroke="#2e6b4f" d="M524,-338.5C524,-338.5 724,-338.5 724,-338.5 730,-338.5 736,-344.5 736,-350.5 736,-350.5 736,-587.5 736,-587.5 736,-593.5 730,-599.5 724,-599.5 724,-599.5 524,-599.5 524,-599.5 518,-599.5 512,-593.5 512,-587.5 512,-587.5 512,-350.5 512,-350.5 512,-344.5 518,-338.5 524,-338.5"/>
<text text-anchor="start" x="550" y="-588.1" font-family="Charter,Georgia,serif" font-weight="bold" font-size="10.50">Subject&#45;independent engine</text>
</g>
<g id="clust2" class="cluster">
<title>cluster_pack</title>
<path fill="#fbf9f5" stroke="#2b4c7e" d="M20,-144.5C20,-144.5 278,-144.5 278,-144.5 284,-144.5 290,-150.5 290,-156.5 290,-156.5 290,-290.5 290,-290.5 290,-296.5 284,-302.5 278,-302.5 278,-302.5 20,-302.5 20,-302.5 14,-302.5 8,-296.5 8,-290.5 8,-290.5 8,-156.5 8,-156.5 8,-150.5 14,-144.5 20,-144.5"/>
<text text-anchor="start" x="16" y="-291.1" font-family="Charter,Georgia,serif" font-weight="bold" font-size="10.50">Curriculum pack (data)</text>
<text text-anchor="start" x="140" y="-291.1" font-family="Charter,Georgia,serif" font-size="10.50"> — curriculum/real&#45;analysis/</text>
</g>
<g id="clust3" class="cluster">
<title>cluster_hard</title>
<path fill="#f3e3e3" stroke="#8c3b3b" d="M310,-8C310,-8 822,-8 822,-8 828,-8 834,-14 834,-20 834,-20 834,-204.5 834,-204.5 834,-210.5 828,-216.5 822,-216.5 822,-216.5 310,-216.5 310,-216.5 304,-216.5 298,-210.5 298,-204.5 298,-204.5 298,-20 298,-20 298,-14 304,-8 310,-8"/>
<text text-anchor="start" x="436.5" y="-205.1" font-family="Charter,Georgia,serif" font-weight="bold" font-size="10.50">Three hardwired tiers</text>
<text text-anchor="start" x="554.5" y="-205.1" font-family="Charter,Georgia,serif" font-size="10.50"> — today, Real Analysis only</text>
</g>
<!-- state -->
<g id="node1" class="node">
<title>state</title>
<path fill="#e8edf5" stroke="#2b4c7e" stroke-width="1.2" d="M687.5,-571.5C687.5,-571.5 616.5,-571.5 616.5,-571.5 610.5,-571.5 604.5,-565.5 604.5,-559.5 604.5,-559.5 604.5,-547.5 604.5,-547.5 604.5,-541.5 610.5,-535.5 616.5,-535.5 616.5,-535.5 687.5,-535.5 687.5,-535.5 693.5,-535.5 699.5,-541.5 699.5,-547.5 699.5,-547.5 699.5,-559.5 699.5,-559.5 699.5,-565.5 693.5,-571.5 687.5,-571.5"/>
<text text-anchor="middle" x="652" y="-557.1" font-family="Charter,Georgia,serif" font-size="10.50">engine/state.py</text>
<text text-anchor="middle" x="652" y="-545.1" font-family="Charter,Georgia,serif" font-size="10.50">learner state</text>
</g>
<!-- sched -->
<g id="node2" class="node">
<title>sched</title>
<path fill="#e8edf5" stroke="#2b4c7e" stroke-width="1.2" d="M695.5,-508.5C695.5,-508.5 600.5,-508.5 600.5,-508.5 594.5,-508.5 588.5,-502.5 588.5,-496.5 588.5,-496.5 588.5,-484.5 588.5,-484.5 588.5,-478.5 594.5,-472.5 600.5,-472.5 600.5,-472.5 695.5,-472.5 695.5,-472.5 701.5,-472.5 707.5,-478.5 707.5,-484.5 707.5,-484.5 707.5,-496.5 707.5,-496.5 707.5,-502.5 701.5,-508.5 695.5,-508.5"/>
<text text-anchor="middle" x="648" y="-494.1" font-family="Charter,Georgia,serif" font-size="10.50">engine/scheduler.py</text>
<text text-anchor="middle" x="648" y="-482.1" font-family="Charter,Georgia,serif" font-size="10.50">SM&#45;2 review</text>
</g>
<!-- state&#45;&gt;sched -->
<!-- tier3 -->
<g id="node9" class="node">
<title>tier3</title>
<path fill="#f3e3e3" stroke="#8c3b3b" stroke-width="1.2" d="M814,-52C814,-52 318,-52 318,-52 312,-52 306,-46 306,-40 306,-40 306,-28 306,-28 306,-22 312,-16 318,-16 318,-16 814,-16 814,-16 820,-16 826,-22 826,-28 826,-28 826,-40 826,-40 826,-46 820,-52 814,-52"/>
<text text-anchor="start" x="316" y="-32.6" font-family="Charter,Georgia,serif" font-weight="bold" font-size="10.50">Tier 3</text>
<text text-anchor="start" x="347" y="-32.6" font-family="Charter,Georgia,serif" font-size="10.50"> — no selection mechanism: marker&#39;s &quot;curriculum&quot; field is written, never read to switch packs</text>
</g>
<!-- state&#45;&gt;tier3 -->
<g id="edge10" class="edge">
<title>state&#45;&gt;tier3</title>
<path fill="none" stroke="#8c3b3b" stroke-dasharray="5,2" d="M699.74,-543.44C727.08,-535.18 756,-519.76 756,-491.5 756,-491.5 756,-491.5 756,-99.75 756,-79.57 717.12,-64.4 674.54,-53.83"/>
<polygon fill="#8c3b3b" stroke="#8c3b3b" points="675.03,-51.25 667.12,-52.05 673.8,-56.35 675.03,-51.25"/>
<text text-anchor="middle" x="841.5" y="-323.3" font-family="Charter,Georgia,serif" font-size="9.00" fill="#8c3b3b">writes .ra&#45;tutor&#45;workspace</text>
<text text-anchor="middle" x="841.5" y="-313.3" font-family="Charter,Georgia,serif" font-size="9.00" fill="#8c3b3b">{curriculum: &quot;real&#45;analysis&quot;} — unread</text>
</g>
<!-- ledgerpy -->
<g id="node3" class="node">
<title>ledgerpy</title>
<path fill="#e8edf5" stroke="#2b4c7e" stroke-width="1.2" d="M675.5,-445.5C675.5,-445.5 590.5,-445.5 590.5,-445.5 584.5,-445.5 578.5,-439.5 578.5,-433.5 578.5,-433.5 578.5,-421.5 578.5,-421.5 578.5,-415.5 584.5,-409.5 590.5,-409.5 590.5,-409.5 675.5,-409.5 675.5,-409.5 681.5,-409.5 687.5,-415.5 687.5,-421.5 687.5,-421.5 687.5,-433.5 687.5,-433.5 687.5,-439.5 681.5,-445.5 675.5,-445.5"/>
<text text-anchor="middle" x="633" y="-431.1" font-family="Charter,Georgia,serif" font-size="10.50">engine/ledger.py</text>
<text text-anchor="middle" x="633" y="-419.1" font-family="Charter,Georgia,serif" font-size="10.50">ledger machinery</text>
</g>
<!-- sched&#45;&gt;ledgerpy -->
<!-- loop -->
<g id="node4" class="node">
<title>loop</title>
<path fill="#e8edf5" stroke="#2b4c7e" stroke-width="1.2" d="M715.5,-382.5C715.5,-382.5 532.5,-382.5 532.5,-382.5 526.5,-382.5 520.5,-376.5 520.5,-370.5 520.5,-370.5 520.5,-358.5 520.5,-358.5 520.5,-352.5 526.5,-346.5 532.5,-346.5 532.5,-346.5 715.5,-346.5 715.5,-346.5 721.5,-346.5 727.5,-352.5 727.5,-358.5 727.5,-358.5 727.5,-370.5 727.5,-370.5 727.5,-376.5 721.5,-382.5 715.5,-382.5"/>
<text text-anchor="middle" x="624" y="-368.1" font-family="Charter,Georgia,serif" font-size="10.50">6&#45;stage loop · stuck escalation</text>
<text text-anchor="middle" x="624" y="-356.1" font-family="Charter,Georgia,serif" font-size="10.50">Bloom calibration · 4&#45;part assessment</text>
</g>
<!-- ledgerpy&#45;&gt;loop -->
<!-- curr -->
<g id="node5" class="node">
<title>curr</title>
<path fill="#e8edf5" stroke="#2b4c7e" stroke-width="1.2" d="M269.5,-274.5C269.5,-274.5 76.5,-274.5 76.5,-274.5 70.5,-274.5 64.5,-268.5 64.5,-262.5 64.5,-262.5 64.5,-250.5 64.5,-250.5 64.5,-244.5 70.5,-238.5 76.5,-238.5 76.5,-238.5 269.5,-238.5 269.5,-238.5 275.5,-238.5 281.5,-244.5 281.5,-250.5 281.5,-250.5 281.5,-262.5 281.5,-262.5 281.5,-268.5 275.5,-274.5 269.5,-274.5"/>
<text text-anchor="middle" x="173" y="-254.1" font-family="Charter,Georgia,serif" font-size="10.50">curriculum.yaml · misconceptions.yaml</text>
</g>
<!-- loop&#45;&gt;curr -->
<g id="edge7" class="edge">
<title>loop&#45;&gt;curr</title>
<path fill="none" stroke="#6b7280" stroke-dasharray="5,2" d="M551.54,-346.47C469.96,-327.3 337.8,-296.23 253.18,-276.35"/>
<polygon fill="#6b7280" stroke="#6b7280" points="253.56,-273.74 245.65,-274.58 252.36,-278.85 253.56,-273.74"/>
<text text-anchor="middle" x="527.5" y="-323.3" font-family="Charter,Georgia,serif" font-size="9.00">reads phases,</text>
<text text-anchor="middle" x="527.5" y="-313.3" font-family="Charter,Georgia,serif" font-size="9.00">misconceptions, ladder</text>
</g>
<!-- tier2 -->
<g id="node8" class="node">
<title>tier2</title>
<path fill="#f3e3e3" stroke="#8c3b3b" stroke-width="1.2" d="M716,-122.25C716,-122.25 350,-122.25 350,-122.25 344,-122.25 338,-116.25 338,-110.25 338,-110.25 338,-91.25 338,-91.25 338,-85.25 344,-79.25 350,-79.25 350,-79.25 716,-79.25 716,-79.25 722,-79.25 728,-85.25 728,-91.25 728,-91.25 728,-110.25 728,-110.25 728,-116.25 722,-122.25 716,-122.25"/>
<text text-anchor="start" x="386" y="-109.1" font-family="Charter,Georgia,serif" font-weight="bold" font-size="10.50">Tier 2</text>
<text text-anchor="start" x="417" y="-109.1" font-family="Charter,Georgia,serif" font-size="10.50"> — subject prose baked into skills &amp; engine constants</text>
<text text-anchor="start" x="418.5" y="-98.6" font-family="Charter,Georgia,serif" font-size="10.50">(check&#45;proof&#39;s &quot;delta depend only on epsilon&quot;;</text>
<text text-anchor="start" x="348" y="-88.1" font-family="Charter,Georgia,serif" font-size="10.50">ledger.py&#39;s delta_depends_on_x; session_start.py&#39;s MISCONCEPTIONS map)</text>
</g>
<!-- loop&#45;&gt;tier2 -->
<g id="edge9" class="edge">
<title>loop&#45;&gt;tier2</title>
<path fill="none" stroke="#8c3b3b" stroke-dasharray="5,2" d="M635.46,-346.23C660.23,-306.53 712.95,-207.38 667,-144.5 661.87,-137.48 655.58,-131.59 648.54,-126.64"/>
<polygon fill="#8c3b3b" stroke="#8c3b3b" points="649.61,-124.21 641.88,-122.36 646.77,-128.62 649.61,-124.21"/>
</g>
<!-- checklists -->
<g id="node6" class="node">
<title>checklists</title>
<path fill="#e8edf5" stroke="#2b4c7e" stroke-width="1.2" d="M262.5,-188.5C262.5,-188.5 83.5,-188.5 83.5,-188.5 77.5,-188.5 71.5,-182.5 71.5,-176.5 71.5,-176.5 71.5,-164.5 71.5,-164.5 71.5,-158.5 77.5,-152.5 83.5,-152.5 83.5,-152.5 262.5,-152.5 262.5,-152.5 268.5,-152.5 274.5,-158.5 274.5,-164.5 274.5,-164.5 274.5,-176.5 274.5,-176.5 274.5,-182.5 268.5,-188.5 262.5,-188.5"/>
<text text-anchor="middle" x="173" y="-168.1" font-family="Charter,Georgia,serif" font-size="10.50">checklists/phaseN.yaml · ladder.yaml</text>
</g>
<!-- curr&#45;&gt;checklists -->
<!-- tier1 -->
<g id="node7" class="node">
<title>tier1</title>
<path fill="#f3e3e3" stroke="#8c3b3b" stroke-width="1.2" d="M646,-188.5C646,-188.5 318,-188.5 318,-188.5 312,-188.5 306,-182.5 306,-176.5 306,-176.5 306,-164.5 306,-164.5 306,-158.5 312,-152.5 318,-152.5 318,-152.5 646,-152.5 646,-152.5 652,-152.5 658,-158.5 658,-164.5 658,-164.5 658,-176.5 658,-176.5 658,-182.5 652,-188.5 646,-188.5"/>
<text text-anchor="start" x="316" y="-169.1" font-family="Charter,Georgia,serif" font-weight="bold" font-size="10.50">Tier 1</text>
<text text-anchor="start" x="347" y="-169.1" font-family="Charter,Georgia,serif" font-size="10.50"> — only pack that ships: no topology/ or algebra/ pack exists</text>
</g>
<!-- curr&#45;&gt;tier1 -->
<g id="edge8" class="edge">
<title>curr&#45;&gt;tier1</title>
<path fill="none" stroke="#8c3b3b" stroke-dasharray="5,2" d="M235.9,-238.4C289.46,-223.84 366,-203.04 419.45,-188.5"/>
</g>
<!-- tier1&#45;&gt;tier2 -->
<!-- tier2&#45;&gt;tier3 -->
</g>
</svg>
