<?xml version="1.0" encoding="UTF-8" standalone="no"?>
<!DOCTYPE svg PUBLIC "-//W3C//DTD SVG 1.1//EN"
 "http://www.w3.org/Graphics/SVG/1.1/DTD/svg11.dtd">
<!-- Generated by graphviz version 2.43.0 (0)
 -->
<!-- Title: StuckEscalation Pages: 1 -->
<svg width="666pt" height="404pt"
 viewBox="0.00 0.00 666.00 404.00" xmlns="http://www.w3.org/2000/svg" xmlns:xlink="http://www.w3.org/1999/xlink">
<g id="graph0" class="graph" transform="scale(1 1) rotate(0) translate(4 400)">
<title>StuckEscalation</title>
<text text-anchor="start" x="137" y="-384.2" font-family="Charter,Georgia,serif" font-weight="bold" font-size="11.00">Stuck&#45;state escalation</text>
<text text-anchor="start" x="260" y="-384.2" font-family="Charter,Georgia,serif" font-size="11.00"> — strict order, never skip (skills/stuck/SKILL.md)</text>
<!-- l1 -->
<g id="node1" class="node">
<title>l1</title>
<path fill="#e8edf5" stroke="#2b4c7e" stroke-width="1.2" d="M208,-375.5C208,-375.5 12,-375.5 12,-375.5 6,-375.5 0,-369.5 0,-363.5 0,-363.5 0,-340.5 0,-340.5 0,-334.5 6,-328.5 12,-328.5 12,-328.5 208,-328.5 208,-328.5 214,-328.5 220,-334.5 220,-340.5 220,-340.5 220,-363.5 220,-363.5 220,-369.5 214,-375.5 208,-375.5"/>
<text text-anchor="start" x="13" y="-358.7" font-family="Charter,Georgia,serif" font-weight="bold" font-size="11.00">Level 1</text>
<text text-anchor="start" x="53" y="-358.7" font-family="Charter,Georgia,serif" font-size="11.00"> — Solow Forward&#45;Backward</text>
<text text-anchor="start" x="55.5" y="-349.3" font-family="Charter,Georgia,serif" font-size="9.00">always the starting point,</text>
<text text-anchor="start" x="82.5" y="-340.3" font-family="Charter,Georgia,serif" font-size="9.00">no exception</text>
</g>
<!-- l2 -->
<g id="node2" class="node">
<title>l2</title>
<path fill="#e8edf5" stroke="#2b4c7e" stroke-width="1.2" d="M516,-281C516,-281 318,-281 318,-281 312,-281 306,-275 306,-269 306,-269 306,-244 306,-244 306,-238 312,-232 318,-232 318,-232 516,-232 516,-232 522,-232 528,-238 528,-244 528,-244 528,-269 528,-269 528,-275 522,-281 516,-281"/>
<text text-anchor="start" x="319" y="-264.2" font-family="Charter,Georgia,serif" font-weight="bold" font-size="11.00">Level 2</text>
<text text-anchor="start" x="359" y="-264.2" font-family="Charter,Georgia,serif" font-size="11.00"> — Revised Recovery Protocol</text>
<text text-anchor="start" x="370.5" y="-253.2" font-family="Charter,Georgia,serif" font-size="11.00">(D&#45;L&#45;M&#45;K + Pólya)</text>
<text text-anchor="start" x="376.5" y="-243.8" font-family="Charter,Georgia,serif" font-size="9.00">when Level 1 stalls</text>
</g>
<!-- l1&#45;&gt;l2 -->
<g id="edge1" class="edge">
<title>l1&#45;&gt;l2</title>
<path fill="none" stroke="#6b7280" stroke-width="1.3" d="M183.92,-328.49C228.55,-314.9 285.57,-297.53 332.04,-283.37"/>
<polygon fill="#6b7280" stroke="#6b7280" stroke-width="1.3" points="332.87,-286.05 339.7,-281.04 331.23,-280.69 332.87,-286.05"/>
<text text-anchor="middle" x="315.5" y="-302" font-family="Charter,Georgia,serif" font-size="10.00">Level 1 exhausted</text>
</g>
<!-- l3 -->
<g id="node3" class="node">
<title>l3</title>
<path fill="#e8edf5" stroke="#2b4c7e" stroke-width="1.2" d="M502,-174C502,-174 332,-174 332,-174 326,-174 320,-168 320,-162 320,-162 320,-137 320,-137 320,-131 326,-125 332,-125 332,-125 502,-125 502,-125 508,-125 514,-131 514,-137 514,-137 514,-162 514,-162 514,-168 508,-174 502,-174"/>
<text text-anchor="start" x="333" y="-157.2" font-family="Charter,Georgia,serif" font-weight="bold" font-size="11.00">Level 3</text>
<text text-anchor="start" x="373" y="-157.2" font-family="Charter,Georgia,serif" font-size="11.00"> — Framework Reframe</text>
<text text-anchor="start" x="336" y="-146.2" font-family="Charter,Georgia,serif" font-size="11.00">(Velleman / Eccles / Hammack)</text>
<text text-anchor="start" x="366" y="-136.8" font-family="Charter,Georgia,serif" font-size="9.00">when Level 2 fails twice</text>
</g>
<!-- l2&#45;&gt;l3 -->
<g id="edge2" class="edge">
<title>l2&#45;&gt;l3</title>
<path fill="none" stroke="#6b7280" stroke-width="1.3" d="M417,-231.94C417,-217.31 417,-198.33 417,-182.38"/>
<polygon fill="#6b7280" stroke="#6b7280" stroke-width="1.3" points="419.8,-182.35 417,-174.35 414.2,-182.35 419.8,-182.35"/>
<text text-anchor="middle" x="466" y="-206" font-family="Charter,Georgia,serif" font-size="10.00">2 full D&#45;L&#45;M&#45;K passes</text>
<text text-anchor="middle" x="466" y="-195" font-family="Charter,Georgia,serif" font-size="10.00">fail</text>
</g>
<!-- l4 -->
<g id="node4" class="node">
<title>l4</title>
<path fill="#f3e3e3" stroke="#8c3b3b" stroke-width="1.2" d="M492.5,-67C492.5,-67 341.5,-67 341.5,-67 335.5,-67 329.5,-61 329.5,-55 329.5,-55 329.5,-12 329.5,-12 329.5,-6 335.5,0 341.5,0 341.5,0 492.5,0 492.5,0 498.5,0 504.5,-6 504.5,-12 504.5,-12 504.5,-55 504.5,-55 504.5,-61 498.5,-67 492.5,-67"/>
<text text-anchor="start" x="342.5" y="-50.2" font-family="Charter,Georgia,serif" font-weight="bold" font-size="11.00">Level 4</text>
<text text-anchor="start" x="382.5" y="-50.2" font-family="Charter,Georgia,serif" font-size="11.00"> — Direct conceptual</text>
<text text-anchor="start" x="384.5" y="-39.2" font-family="Charter,Georgia,serif" font-size="11.00">intervention</text>
<text text-anchor="start" x="353" y="-29.8" font-family="Charter,Georgia,serif" font-size="9.00">only after 1–3 all documented</text>
<text text-anchor="start" x="362.5" y="-20.8" font-family="Charter,Georgia,serif" font-size="9.00">as failed — concepts only,</text>
<text text-anchor="start" x="365.5" y="-11.8" font-family="Charter,Georgia,serif" font-size="9.00">never a step of the proof</text>
</g>
<!-- l3&#45;&gt;l4 -->
<g id="edge3" class="edge">
<title>l3&#45;&gt;l4</title>
<path fill="none" stroke="#6b7280" stroke-width="1.3" d="M417,-124.88C417,-110.66 417,-92.17 417,-75.61"/>
<polygon fill="#6b7280" stroke="#6b7280" stroke-width="1.3" points="419.8,-75.17 417,-67.17 414.2,-75.17 419.8,-75.17"/>
<text text-anchor="middle" x="465.5" y="-99" font-family="Charter,Georgia,serif" font-size="10.00">documented failure,</text>
<text text-anchor="middle" x="465.5" y="-88" font-family="Charter,Georgia,serif" font-size="10.00">not just &quot;feels slow&quot;</text>
</g>
<!-- neverskip -->
<g id="node5" class="node">
<title>neverskip</title>
<polygon fill="#fbf9f5" stroke="#8c3b3b" stroke-width="1.2" points="398,-376 256,-376 256,-328 404,-328 404,-370 398,-376"/>
<polyline fill="none" stroke="#8c3b3b" stroke-width="1.2" points="398,-376 398,-370 "/>
<polyline fill="none" stroke="#8c3b3b" stroke-width="1.2" points="404,-370 398,-370 "/>
<text text-anchor="middle" x="330" y="-359.4" font-family="Charter,Georgia,serif" font-size="9.50" fill="#8c3b3b">never skip a level</text>
<text text-anchor="middle" x="330" y="-349.4" font-family="Charter,Georgia,serif" font-size="9.50" fill="#8c3b3b">never jump ahead because</text>
<text text-anchor="middle" x="330" y="-339.4" font-family="Charter,Georgia,serif" font-size="9.50" fill="#8c3b3b">a level &quot;feels slow&quot;</text>
</g>
<!-- neverskip&#45;&gt;l1 -->
<g id="edge4" class="edge">
<title>neverskip&#45;&gt;l1</title>
<path fill="none" stroke="#8c3b3b" stroke-width="1.3" stroke-dasharray="1,5" d="M255.66,-352C243.78,-352 231.89,-352 220,-352"/>
</g>
<!-- neverskip&#45;&gt;l4 -->
<g id="edge5" class="edge">
<title>neverskip&#45;&gt;l4</title>
<path fill="none" stroke="#8c3b3b" stroke-width="1.3" stroke-dasharray="1,5" d="M404.22,-330.47C460.22,-314.24 528.78,-292.46 537,-281 562.83,-244.99 568.02,-155.39 518,-85 513.23,-78.29 507.31,-72.42 500.74,-67.3"/>
</g>
<!-- analogy -->
<g id="node6" class="node">
<title>analogy</title>
<polygon fill="#fbf9f5" stroke="#2b4c7e" stroke-width="1.2" points="652,-375 422,-375 422,-329 658,-329 658,-369 652,-375"/>
<polyline fill="none" stroke="#2b4c7e" stroke-width="1.2" points="652,-375 652,-369 "/>
<polyline fill="none" stroke="#2b4c7e" stroke-width="1.2" points="658,-369 652,-369 "/>
<text text-anchor="start" x="457" y="-359.4" font-family="Charter,Georgia,serif" font-size="9.50">Pólya Step 3 (Analogy) within Level 2</text>
<text text-anchor="start" x="460" y="-349.9" font-family="Charter,Georgia,serif" font-size="9.50">is gated: not offered before </text>
<text text-anchor="start" x="584" y="-349.9" font-family="Charter,Georgia,serif" font-weight="bold" font-size="9.50">Phase 4</text>
<text text-anchor="start" x="435" y="-340.8" font-family="Charter,Georgia,serif" font-size="9.00">thin Ledger ⇒ analogy prompt wastes the attempt</text>
</g>
<!-- analogy&#45;&gt;l2 -->
<g id="edge6" class="edge">
<title>analogy&#45;&gt;l2</title>
<path fill="none" stroke="#2b4c7e" stroke-width="1.3" stroke-dasharray="1,5" d="M510.85,-328.84C491.95,-314.48 467.36,-295.78 448.09,-281.13"/>
</g>
</g>
</svg>
