<?xml version="1.0" encoding="UTF-8" standalone="no"?>
<!DOCTYPE svg PUBLIC "-//W3C//DTD SVG 1.1//EN"
 "http://www.w3.org/Graphics/SVG/1.1/DTD/svg11.dtd">
<!-- Generated by graphviz version 2.43.0 (0)
 -->
<!-- Title: ThreeLayers Pages: 1 -->
<svg width="710pt" height="420pt"
 viewBox="0.00 0.00 710.00 420.00" xmlns="http://www.w3.org/2000/svg" xmlns:xlink="http://www.w3.org/1999/xlink">
<g id="graph0" class="graph" transform="scale(1 1) rotate(0) translate(4 416)">
<title>ThreeLayers</title>
<text text-anchor="start" x="279.5" y="-400.2" font-family="Charter,Georgia,serif" font-weight="bold" font-size="11.00">Three layers of the plugin</text>
<g id="clust1" class="cluster">
<title>cluster_det</title>
<path fill="#fbf9f5" stroke="#2b4c7e" d="M20,-195.5C20,-195.5 318,-195.5 318,-195.5 324,-195.5 330,-201.5 330,-207.5 330,-207.5 330,-257.5 330,-257.5 330,-263.5 324,-269.5 318,-269.5 318,-269.5 20,-269.5 20,-269.5 14,-269.5 8,-263.5 8,-257.5 8,-257.5 8,-207.5 8,-207.5 8,-201.5 14,-195.5 20,-195.5"/>
<text text-anchor="start" x="16" y="-257.7" font-family="Charter,Georgia,serif" font-weight="bold" font-size="11.00">Deterministic layer</text>
<text text-anchor="start" x="123" y="-257.7" font-family="Charter,Georgia,serif" font-size="11.00"> — never depends on model judgment</text>
</g>
<g id="clust2" class="cluster">
<title>cluster_judg</title>
<path fill="#fbf9f5" stroke="#2b4c7e" d="M386,-171C386,-171 580,-171 580,-171 586,-171 592,-177 592,-183 592,-183 592,-282 592,-282 592,-288 586,-294 580,-294 580,-294 386,-294 386,-294 380,-294 374,-288 374,-282 374,-282 374,-183 374,-183 374,-177 380,-171 386,-171"/>
<text text-anchor="start" x="395" y="-282.2" font-family="Charter,Georgia,serif" font-weight="bold" font-size="11.00">Judgment layer</text>
<text text-anchor="start" x="480" y="-282.2" font-family="Charter,Georgia,serif" font-size="11.00"> — how to decide</text>
</g>
<g id="clust3" class="cluster">
<title>cluster_fresh</title>
<path fill="#fbf9f5" stroke="#2b4c7e" d="M345,-8C345,-8 564,-8 564,-8 570,-8 576,-14 576,-20 576,-20 576,-119 576,-119 576,-125 570,-131 564,-131 564,-131 345,-131 345,-131 339,-131 333,-125 333,-119 333,-119 333,-20 333,-20 333,-14 339,-8 345,-8"/>
<text text-anchor="start" x="341" y="-119.2" font-family="Charter,Georgia,serif" font-weight="bold" font-size="11.00">Fresh&#45;context layer</text>
<text text-anchor="start" x="450" y="-119.2" font-family="Charter,Georgia,serif" font-size="11.00"> — no self&#45;review bias</text>
</g>
<!-- hooks -->
<g id="node1" class="node">
<title>hooks</title>
<path fill="#e8edf5" stroke="#2b4c7e" stroke-width="1.2" d="M390.5,-392C390.5,-392 295.5,-392 295.5,-392 289.5,-392 283.5,-386 283.5,-380 283.5,-380 283.5,-354 283.5,-354 283.5,-348 289.5,-342 295.5,-342 295.5,-342 390.5,-342 390.5,-342 396.5,-342 402.5,-348 402.5,-354 402.5,-354 402.5,-380 402.5,-380 402.5,-386 396.5,-392 390.5,-392"/>
<text text-anchor="middle" x="343" y="-376.2" font-family="Charter,Georgia,serif" font-size="11.00">3 hooks</text>
<text text-anchor="middle" x="343" y="-364.2" font-family="Charter,Georgia,serif" font-size="11.00">hooks/hooks.json</text>
<text text-anchor="middle" x="343" y="-352.2" font-family="Charter,Georgia,serif" font-size="11.00">hooks/scripts/*.py</text>
</g>
<!-- engine -->
<g id="node2" class="node">
<title>engine</title>
<path fill="#e8edf5" stroke="#2b4c7e" stroke-width="1.2" d="M291.5,-241.5C291.5,-241.5 116.5,-241.5 116.5,-241.5 110.5,-241.5 104.5,-235.5 104.5,-229.5 104.5,-229.5 104.5,-215.5 104.5,-215.5 104.5,-209.5 110.5,-203.5 116.5,-203.5 116.5,-203.5 291.5,-203.5 291.5,-203.5 297.5,-203.5 303.5,-209.5 303.5,-215.5 303.5,-215.5 303.5,-229.5 303.5,-229.5 303.5,-235.5 297.5,-241.5 291.5,-241.5"/>
<text text-anchor="middle" x="204" y="-225.7" font-family="Charter,Georgia,serif" font-size="11.00">engine/</text>
<text text-anchor="middle" x="204" y="-213.7" font-family="Charter,Georgia,serif" font-size="11.00">state.py · scheduler.py · ledger.py</text>
</g>
<!-- hooks&#45;&gt;engine -->
<g id="edge1" class="edge">
<title>hooks&#45;&gt;engine</title>
<path fill="none" stroke="#6b7280" stroke-dasharray="5,2" d="M319.42,-341.83C293.89,-315.66 253.4,-274.15 227.79,-247.89"/>
<polygon fill="#6b7280" stroke="#6b7280" points="229.53,-245.66 221.94,-241.89 225.52,-249.57 229.53,-245.66"/>
<text text-anchor="middle" x="339" y="-310.5" font-family="Charter,Georgia,serif" font-size="10.00">reads/writes via</text>
</g>
<!-- skills -->
<g id="node3" class="node">
<title>skills</title>
<path fill="#e8edf5" stroke="#2b4c7e" stroke-width="1.2" d="M572,-266C572,-266 394,-266 394,-266 388,-266 382,-260 382,-254 382,-254 382,-191 382,-191 382,-185 388,-179 394,-179 394,-179 572,-179 572,-179 578,-179 584,-185 584,-191 584,-191 584,-254 584,-254 584,-260 578,-266 572,-266"/>
<text text-anchor="middle" x="483" y="-250.2" font-family="Charter,Georgia,serif" font-size="11.00">10 skills</text>
<text text-anchor="middle" x="483" y="-238.2" font-family="Charter,Georgia,serif" font-size="11.00">skills/*/SKILL.md</text>
<text text-anchor="middle" x="483" y="-213.2" font-family="Charter,Georgia,serif" font-size="11.00">tutor · prime · check&#45;proof · stuck</text>
<text text-anchor="middle" x="483" y="-201.2" font-family="Charter,Georgia,serif" font-size="11.00">formalize · attack · assess · ledger</text>
<text text-anchor="middle" x="483" y="-189.2" font-family="Charter,Georgia,serif" font-size="11.00">review · setup</text>
</g>
<!-- hooks&#45;&gt;skills -->
<g id="edge2" class="edge">
<title>hooks&#45;&gt;skills</title>
<path fill="none" stroke="#6b7280" d="M366.75,-341.83C385.45,-322.79 412.12,-295.65 435.19,-272.16"/>
<polygon fill="#6b7280" stroke="#6b7280" points="437.37,-273.94 440.98,-266.27 433.37,-270.02 437.37,-273.94"/>
<text text-anchor="middle" x="446.5" y="-316" font-family="Charter,Georgia,serif" font-size="10.00">fires every turn;</text>
<text text-anchor="middle" x="446.5" y="-305" font-family="Charter,Georgia,serif" font-size="10.00">reinjects contract</text>
</g>
<!-- learner -->
<g id="node5" class="node">
<title>learner</title>
<path fill="#fbf9f5" stroke="#6b7280" stroke-width="1.2" d="M85,-77.5C85,-77.5 21,-77.5 21,-77.5 15,-77.5 9,-71.5 9,-65.5 9,-65.5 9,-53.5 9,-53.5 9,-47.5 15,-41.5 21,-41.5 21,-41.5 85,-41.5 85,-41.5 91,-41.5 97,-47.5 97,-53.5 97,-53.5 97,-65.5 97,-65.5 97,-71.5 91,-77.5 85,-77.5"/>
<text text-anchor="middle" x="53" y="-56.7" font-family="Charter,Georgia,serif" font-size="11.00">learner.json</text>
</g>
<!-- engine&#45;&gt;learner -->
<g id="edge5" class="edge">
<title>engine&#45;&gt;learner</title>
<path fill="none" stroke="#6b7280" d="M182.6,-203.38C162.28,-185.75 131.3,-157.78 107,-131 93.56,-116.18 79.87,-98.27 69.64,-84.21"/>
<polygon fill="#6b7280" stroke="#6b7280" points="71.85,-82.5 64.91,-77.65 67.31,-85.78 71.85,-82.5"/>
</g>
<!-- ledgerjson -->
<g id="node6" class="node">
<title>ledgerjson</title>
<path fill="#fbf9f5" stroke="#6b7280" stroke-width="1.2" d="M202.5,-78.5C202.5,-78.5 127.5,-78.5 127.5,-78.5 121.5,-78.5 115.5,-72.5 115.5,-66.5 115.5,-66.5 115.5,-52.5 115.5,-52.5 115.5,-46.5 121.5,-40.5 127.5,-40.5 127.5,-40.5 202.5,-40.5 202.5,-40.5 208.5,-40.5 214.5,-46.5 214.5,-52.5 214.5,-52.5 214.5,-66.5 214.5,-66.5 214.5,-72.5 208.5,-78.5 202.5,-78.5"/>
<text text-anchor="middle" x="165" y="-62.7" font-family="Charter,Georgia,serif" font-size="11.00">ledger.json</text>
<text text-anchor="middle" x="165" y="-50.7" font-family="Charter,Georgia,serif" font-size="11.00">error_log.json</text>
</g>
<!-- engine&#45;&gt;ledgerjson -->
<g id="edge6" class="edge">
<title>engine&#45;&gt;ledgerjson</title>
<path fill="none" stroke="#6b7280" d="M199.6,-203.34C192.7,-174.84 179.28,-119.46 171.34,-86.66"/>
<polygon fill="#6b7280" stroke="#6b7280" points="174.05,-85.95 169.44,-78.84 168.6,-87.27 174.05,-85.95"/>
</g>
<!-- reviews -->
<g id="node7" class="node">
<title>reviews</title>
<path fill="#fbf9f5" stroke="#6b7280" stroke-width="1.2" d="M313.5,-77.5C313.5,-77.5 244.5,-77.5 244.5,-77.5 238.5,-77.5 232.5,-71.5 232.5,-65.5 232.5,-65.5 232.5,-53.5 232.5,-53.5 232.5,-47.5 238.5,-41.5 244.5,-41.5 244.5,-41.5 313.5,-41.5 313.5,-41.5 319.5,-41.5 325.5,-47.5 325.5,-53.5 325.5,-53.5 325.5,-65.5 325.5,-65.5 325.5,-71.5 319.5,-77.5 313.5,-77.5"/>
<text text-anchor="middle" x="279" y="-56.7" font-family="Charter,Georgia,serif" font-size="11.00">reviews.json</text>
</g>
<!-- engine&#45;&gt;reviews -->
<g id="edge7" class="edge">
<title>engine&#45;&gt;reviews</title>
<path fill="none" stroke="#6b7280" d="M212.46,-203.34C225.93,-174.41 252.31,-117.8 267.49,-85.21"/>
<polygon fill="#6b7280" stroke="#6b7280" points="270.07,-86.29 270.91,-77.86 265,-83.93 270.07,-86.29"/>
</g>
<!-- agents -->
<g id="node4" class="node">
<title>agents</title>
<path fill="#e8edf5" stroke="#2b4c7e" stroke-width="1.2" d="M552,-103C552,-103 358,-103 358,-103 352,-103 346,-97 346,-91 346,-91 346,-28 346,-28 346,-22 352,-16 358,-16 358,-16 552,-16 552,-16 558,-16 564,-22 564,-28 564,-28 564,-91 564,-91 564,-97 558,-103 552,-103"/>
<text text-anchor="middle" x="455" y="-87.2" font-family="Charter,Georgia,serif" font-size="11.00">5 subagents</text>
<text text-anchor="middle" x="455" y="-75.2" font-family="Charter,Georgia,serif" font-size="11.00">agents/*.md</text>
<text text-anchor="middle" x="455" y="-50.2" font-family="Charter,Georgia,serif" font-size="11.00">proof&#45;critic · counterexample&#45;hunter</text>
<text text-anchor="middle" x="455" y="-38.2" font-family="Charter,Georgia,serif" font-size="11.00">misconception&#45;prober · lean&#45;verifier</text>
<text text-anchor="middle" x="455" y="-26.2" font-family="Charter,Georgia,serif" font-size="11.00">leakage&#45;auditor</text>
</g>
<!-- skills&#45;&gt;agents -->
<g id="edge3" class="edge">
<title>skills&#45;&gt;agents</title>
<path fill="none" stroke="#6b7280" d="M443.84,-178.97C440.26,-173.25 437.16,-167.2 435,-161 429.47,-145.12 430.75,-127.26 434.56,-111.06"/>
<polygon fill="#6b7280" stroke="#6b7280" points="437.29,-111.7 436.62,-103.25 431.87,-110.27 437.29,-111.7"/>
<text text-anchor="middle" x="468.5" y="-153" font-family="Charter,Georgia,serif" font-size="10.00">dispatches for</text>
<text text-anchor="middle" x="468.5" y="-142" font-family="Charter,Georgia,serif" font-size="10.00">a fresh look</text>
</g>
<!-- sessions -->
<g id="node8" class="node">
<title>sessions</title>
<path fill="#fbf9f5" stroke="#6b7280" stroke-width="1.2" d="M690,-77.5C690,-77.5 596,-77.5 596,-77.5 590,-77.5 584,-71.5 584,-65.5 584,-65.5 584,-53.5 584,-53.5 584,-47.5 590,-41.5 596,-41.5 596,-41.5 690,-41.5 690,-41.5 696,-41.5 702,-47.5 702,-53.5 702,-53.5 702,-65.5 702,-65.5 702,-71.5 696,-77.5 690,-77.5"/>
<text text-anchor="middle" x="643" y="-56.7" font-family="Charter,Georgia,serif" font-size="11.00">sessions/NNN.md</text>
</g>
<!-- skills&#45;&gt;sessions -->
<g id="edge8" class="edge">
<title>skills&#45;&gt;sessions</title>
<path fill="none" stroke="#6b7280" stroke-dasharray="5,2" d="M559.18,-178.81C566.58,-173.27 573.68,-167.31 580,-161 602.43,-138.62 620.65,-106.84 631.63,-85.04"/>
<polygon fill="#6b7280" stroke="#6b7280" points="634.18,-86.19 635.2,-77.78 629.16,-83.72 634.18,-86.19"/>
<text text-anchor="middle" x="627.5" y="-147.5" font-family="Charter,Georgia,serif" font-size="10.00">narrative log</text>
</g>
<!-- agents&#45;&gt;skills -->
<g id="edge4" class="edge">
<title>agents&#45;&gt;skills</title>
<path fill="none" stroke="#6b7280" stroke-dasharray="5,2" d="M486.06,-103.01C492.61,-114.19 498.57,-126.6 502,-139 504.84,-149.27 504.55,-160.35 502.67,-170.94"/>
<polygon fill="#6b7280" stroke="#6b7280" points="499.89,-170.52 500.95,-178.93 505.37,-171.7 499.89,-170.52"/>
<text text-anchor="middle" x="540" y="-147.5" font-family="Charter,Georgia,serif" font-size="10.00">verdict returns</text>
</g>
</g>
</svg>
